<?xml version="1.0" encoding="UTF-8"?><svg id="a" xmlns="http://www.w3.org/2000/svg" xmlns:xlink="http://www.w3.org/1999/xlink" viewBox="0 0 80 110"><defs><style>.c{clip-path:url(#b);}.d{fill:none;}</style><clipPath id="b"><rect class="d" x="10" y="10" width="60" height="90" rx="4" ry="4"/></clipPath></defs><path d="M19.20117,25.20117c.17969-.21875,.4082-.32812,.68555-.32812s.50586,.10938,.68555,.32812l4.16016,4.97461c.14844,.17578,.22266,.37988,.22266,.6123s-.07422,.43652-.22266,.6123l-4.16016,4.97461c-.17969,.21484-.4082,.32227-.68555,.32227s-.50586-.10742-.68555-.32227l-4.16016-4.97461c-.14844-.17969-.22266-.38477-.22266-.61523s.07422-.43359,.22266-.60938l4.16016-4.97461Z"/><g class="c"><path d="M77.11621,65.21875l-25.85553-26.53124c-1.11694-1.16651-2.53717-1.75-4.26068-1.75-1.72406,0-3.14429,.58349-4.26068,1.75l-4.65948,4.78124-1.94904,2-5.84723,6-1.94904,2-5.84717,6-1.9491,2-3.65448,3.75c-.66321,.67365-1.07831,1.42578-1.26477,2.25-.073,.32281-.11902,.65411-.11902,1,0,.34491,.04553,.67645,.1181,1,.1861,.82977,.60168,1.59198,1.26569,2.28125l3.62402,3.71875,1.9491,2,5.84717,6,1.94904,2,5.84723,6,1.94904,2,4.68994,4.8125c1.11639,1.14551,2.53662,1.71875,4.26068,1.71875,1.72351,0,3.14374-.57324,4.26068-1.71875l25.85553-26.53125c.92236-.93749,1.38379-2.02588,1.38379-3.26562,0-1.23926-.46143-2.32812-1.38379-3.26562Zm-32.93201-25.14844c.73969-.77289,1.6344-1.1328,2.8158-1.1328v4.53124h-6.12769l3.31189-3.39844Zm-5.26093,5.39844h8.07672v6h-13.92389l5.84717-6Zm-7.7962,8h15.87292v6H25.27991l5.84717-6Zm-12.81091,13.14581l5.01471-5.14581h23.66913v6H17.71185c.13422-.29626,.33215-.5777,.60431-.85419Zm.008,3.74786c-.27911-.28979-.48346-.58417-.61926-.89368h29.2951v6H23.30042l-4.97626-5.10632Zm6.92535,7.10632h21.75049v6h-15.90332l-5.84717-6Zm7.79626,8h13.95422v6h-8.10706l-5.84717-6Zm11.12585,11.41663l-3.32959-3.41663h6.15796v4.53125c-1.18854,0-2.08728-.35419-2.82837-1.11462Z"/></g></svg>