<?xml version="1.0" encoding="UTF-8"?><svg id="a" xmlns="http://www.w3.org/2000/svg" viewBox="0 0 80 110"><path d="M13.16309,22.83594c-.13086-.12988-.19531-.28906-.19531-.47656s.06445-.34863,.19531-.48438c.12988-.13477,.28906-.20312,.47656-.20312h1.84375v-7.64062c0-.07227-.01855-.12207-.05469-.14844-.03711-.02539-.0918-.01758-.16406,.02344l-1.35938,.65625c-.13574,.0625-.25586,.09375-.35938,.09375-.19824,0-.3623-.06445-.49219-.19531-.13086-.12988-.19531-.29395-.19531-.49219,0-.30176,.14062-.52051,.42188-.65625l2.125-1.10938c.11426-.07227,.25977-.10938,.4375-.10938h.32812c.20801,0,.3877,.07617,.53906,.22656,.15039,.15137,.22656,.33105,.22656,.53906v8.8125h1.53125c.1875,0,.34863,.06836,.48438,.20312,.13477,.13574,.20312,.29688,.20312,.48438s-.06836,.34668-.20312,.47656c-.13574,.13086-.29688,.19531-.48438,.19531h-4.82812c-.1875,0-.34668-.06445-.47656-.19531Z"/><path d="M20.84375,21.6875c-.73438-1-1.10156-2.375-1.10156-4.125s.36719-3.125,1.10156-4.125,1.78418-1.5,3.14844-1.5c1.34375,0,2.3877,.49512,3.13281,1.48438,.74512,.99023,1.11719,2.37012,1.11719,4.14062,0,1.77148-.37207,3.15137-1.11719,4.14062-.74512,.99023-1.78906,1.48438-3.13281,1.48438-1.36426,0-2.41406-.5-3.14844-1.5Zm5.21094-.96094c.48926-.74414,.73438-1.79883,.73438-3.16406,0-1.35352-.24512-2.40332-.73438-3.14844-.48926-.74414-1.17676-1.11719-2.0625-1.11719s-1.57324,.37305-2.0625,1.11719c-.48926,.74512-.73438,1.79492-.73438,3.14844,0,1.36523,.24512,2.41992,.73438,3.16406,.48926,.74512,1.17676,1.11719,2.0625,1.11719s1.57324-.37207,2.0625-1.11719Z"/></svg>