<?xml version="1.0" encoding="UTF-8"?><svg id="a" xmlns="http://www.w3.org/2000/svg" viewBox="0 0 80 110"><path d="M16.36328,22.89844c-.14062-.14062-.21094-.30957-.21094-.50781V12.75c0-.19727,.07031-.36914,.21094-.51562,.14062-.14551,.30957-.21875,.50781-.21875,.19727,0,.36914,.07324,.51562,.21875,.14551,.14648,.21875,.31836,.21875,.51562v4.9375l5.3125-5.42188c.13477-.16602,.31738-.25,.54688-.25,.1875,0,.3457,.06055,.47656,.17969,.12988,.12012,.19531,.27344,.19531,.46094,0,.19824-.05762,.36523-.17188,.5l-3.60938,3.57812,4.14062,5.20312c.11426,.14648,.17188,.3125,.17188,.5s-.07031,.34668-.21094,.47656-.30469,.19531-.49219,.19531c-.22949,0-.42188-.09375-.57812-.28125l-4.01562-5.125-1.76562,1.76562v2.92188c0,.19824-.07324,.36719-.21875,.50781-.14648,.14062-.31836,.21094-.51562,.21094-.19824,0-.36719-.07031-.50781-.21094Z"/></svg>