<?xml version="1.0" encoding="UTF-8"?><svg id="b" xmlns="http://www.w3.org/2000/svg" viewBox="0 0 181.76562 150"><g id="c"><path d="M131.3412,49.0713c.01081-.23557,.03871-.46964,.03942-.70607,.00008-.01301,.00219-.02594,.00219-.03895,.00086-1.22195-.12875-2.45487-.39708-3.69954-.54856-2.54093-1.74535-4.92136-3.59101-7.14192L99.26844,3.90181c-1.44443-1.73846-3.20358-2.89513-5.27618-3.47065-1.03662-.28744-2.07151-.43117-3.10468-.43117l-.00455,.00031-.00227-.00016V.00047c-1.0309,.00063-2.06007,.14388-3.08752,.4307-1.06154,.29653-2.04165,.75364-2.94669,1.35893-.69651,.4658-1.33731,1.04171-1.94111,1.69042-.13424,.14419-.27882,.26801-.40844,.42129l-4.58383,5.48095-1.65398,1.97763-4.9617,5.93281-1.6539,1.97763-4.96178,5.93281-1.6539,1.97763-4.9617,5.93289-1.65398,1.97755-2.00137,2.39312c-1.06906,1.26772-1.89707,2.59358-2.53449,3.9656-.40484,.87142-.72363,1.76361-.95426,2.6772-.04232,.16762-.10595,.33007-.14239,.49912-.54856,2.54153-.5285,5.03543,.06018,7.48294,.58805,2.44751,1.64505,4.67434,3.16972,6.68049,1.52468,2.00615,3.44369,3.61108,5.75766,4.81477,2.31335,1.20369,4.91508,1.80554,7.80394,1.80554,1.42821,0,2.80532-.17217,4.13738-.49637,.92933-.22616,1.83594-.52897,2.71849-.91296,.83788-.36448,1.65696-.79227,2.45268-1.29898,1.47131-.93701,2.73863-2.04972,3.82117-3.32175,.56-.65803,1.06021-1.36763,1.51613-2.11539,.36095-.59189,.70646-1.19711,1.00214-1.84519l1.88578-4.05242v9.14806c0,1.0131-.12358,1.9795-.36941,2.89951-.24748,.92628-.61885,1.80554-1.11514,2.63746-.88788,1.48784-2.05983,2.69655-3.4853,3.65676-.16378,.11034-.31597,.23212-.48688,.33548-.61062,.36926-1.25541,.65192-1.91666,.89242-1.13512,.41291-2.33607,.65835-3.62032,.69244h-.24074c-1.28394,0-2.38732,.45452-3.31015,1.36418-.92283,.90904-1.38425,2.00615-1.38425,3.29009s.46142,2.38732,1.38425,3.31015c.92283,.92283,2.02621,1.38425,3.31015,1.38425h34.06449c1.28394,0,2.38732-.46142,3.31015-1.38425s1.38425-2.02621,1.38425-3.31015l-.00078-.00854c-.00219-1.28002-.46275-2.37463-1.38346-3.28155-.92283-.90967-2.02621-1.36418-3.31015-1.36418h-.24074c-.0815-.00219-.15798-.01708-.23886-.02077-1.93719-.08824-3.70637-.60122-5.29813-1.56409-1.65884-1.00308-2.9829-2.33341-3.97218-3.99225-.92996-1.55775-1.40572-3.28743-1.46206-5.17603-.0036-.12178-.02249-.23776-.02249-.36094v-9.13914l1.88163,4.0435c1.39052,3.04935,3.49698,5.4768,6.31938,7.28234,2.82178,1.80554,5.93132,2.70831,9.32861,2.70831l.00157-.00008,.00259,.00008c.50264,0,.98513-.04208,1.47037-.07852l.0036-.00039c.49409-.0373,.97753-.09709,1.45352-.17225,.09709-.01512,.19341-.03213,.2898-.0489,.45985-.08056,.9146-.17201,1.35729-.28846l.01426-.00306c.02265-.00596,.04396-.01497,.06661-.021,.52724-.14168,1.04814-.29677,1.55101-.48955,.54738-.20328,1.08121-.43485,1.59748-.70341,.0366-.01904,.06724-.04412,.1036-.0634,.64236-.33971,1.24758-.71743,1.82858-1.11976,.07155-.05039,.13886-.10485,.20947-.15618,.56862-.40672,1.10503-.84619,1.61315-1.31442,.00987-.00909,.02147-.01646,.03135-.02555,.02382-.02202,.04537-.04631,.06904-.06849,.48438-.45374,.94109-.93568,1.36959-1.44623,.1036-.12249,.21433-.23776,.31425-.36401,.07006-.08847,.15015-.16668,.21864-.25672,1.52468-2.00615,2.57415-4.23298,3.14966-6.68049,.03903-.16606,.05454-.33407,.0884-.5006,.01418-.06975,.01959-.1402,.03299-.21002,.08628-.45428,.16676-.90912,.21472-1.36661,.03589-.31903,.04302-.64048,.05948-.96115Zm-43.66832,11.44418v-8.68924l3.20789,3.20789v10.89459l-3.36642-3.36642c.09733-.66806,.15853-1.34796,.15853-2.04681Zm.81077-57.61094c.79784-.22279,1.60437-.33556,2.39712-.33619V7.82431l-4.1601-4.1601c.55373-.31824,1.13324-.58374,1.76299-.75967Zm-4.02626,2.6558c.08307-.09819,.17421-.17546,.25923-.26864l6.16414,6.16414v10.89451l-11.14465-11.14465,4.72128-5.64536Zm-6.37526,7.62299l12.79863,12.79863v10.89451l-17.76034-17.76034,4.9617-5.93281Zm-6.6156,7.91044l19.41424,19.41424v10.89459l-24.37602-24.37602,4.96178-5.93281Zm-3.89531,41.74884c-2.45903,0-4.68586-.50992-6.6189-1.51574-1.96384-1.02149-3.61178-2.39775-4.89831-4.09044-1.30157-1.71268-2.21578-3.63937-2.71748-5.72725-.40695-1.69199-.47152-3.43609-.23024-5.19735l16.40673,16.40673c-.63311,.07954-1.27861,.12405-1.94182,.12405Zm7.92932-2.30645c-.98693,.62841-2.00129,1.11937-3.04927,1.48918l-18.62431-18.62431c.56157-1.4793,1.40744-2.90955,2.55369-4.2688l1.85459-2.2175,20.63838,20.6383c-.94234,1.14249-2.05019,2.14063-3.37308,2.98313Zm7.2763-10.25215l-1.89386,4.07006c-.16472,.36103-.36722,.68413-.55396,1.0229l-20.43988-20.43988,4.9617-5.93289,19.85246,19.85246c-.82197,.1322-1.5583,.63617-1.92646,1.42735Zm-8.62544,28.12635h-.28086c-.60443,0-1.05135-.18902-1.49443-.6321s-.6321-.89-.6321-1.49443c0-.59683,.18494-1.03372,.61901-1.46128,.44449-.43814,.89532-.62512,1.50751-.62512h.24074l.0681-.00086c1.97183-.05235,3.81773-.49707,5.51966-1.29201l5.50579,5.50579h-11.05344Zm14.68489,0l-6.85854-6.85854c1.55289-1.1265,2.8543-2.51858,3.8479-4.18369,.37043-.62089,.66681-1.27179,.92636-1.93672l4.12876,4.12876v8.85019h-2.04447Z"/><g><path d="M17.32812,110.07812c.75,.54199,1.30957,1.13281,1.67969,1.77344,.36963,.64062,.55469,1.33105,.55469,2.07031,0,1.19824-.46387,2.30225-1.39062,3.3125-1.13574,1.25-2.84375,1.92725-5.125,2.03125-1.26074,.0625-3.03125,.09375-5.3125,.09375H0l.01562-.73438,.03125-3.03125,.04688-5.96875-.0625-6.5-.03125-5.09375H8.375c2.09375,0,3.53369,.03418,4.32031,.10156,.78613,.06787,1.59619,.23193,2.42969,.49219,.88525,.28125,1.71338,.69287,2.48438,1.23438,.77051,.54199,1.36963,1.13574,1.79688,1.78125,.6665,1.01074,1,2.14062,1,3.39062,0,1.125-.27637,2.14062-.82812,3.04688-.55225,.90625-1.30225,1.57324-2.25,2Zm-1.26562,.40625c-.44824,.09375-.86475,.14062-1.25,.14062-.82324,0-1.4873-.13525-1.99219-.40625-.50537-.27051-.75781-.625-.75781-1.0625,0-.23926,.08301-.35938,.25-.35938,.125,0,.29688,.05225,.51562,.15625,.71875,.36475,1.5,.54688,2.34375,.54688,1.53125,0,2.6875-.604,3.46875-1.8125,.5-.76025,.75-1.62988,.75-2.60938,0-1.48926-.57812-2.76562-1.73438-3.82812-.82324-.77051-1.80469-1.32812-2.94531-1.67188s-2.57031-.51562-4.28906-.51562h-.85938l-.09375,9.375,.09375,9.89062,1.40625,.01562c1.55176,0,2.76025-.08594,3.625-.25781,.86426-.17188,1.58301-.46582,2.15625-.88281,1.1875-.875,1.78125-1.979,1.78125-3.3125,0-.67676-.20605-1.29932-.61719-1.86719-.41162-.56738-1.02881-1.08057-1.85156-1.53906Z"/><path d="M30.90625,98.03125l.01562,.79688-.03125,5.5-.01562,2.375-.03125,4.32812,.0625,7.71875v.60938h-7.98438v-.73438l.0376-2.48438,.01855-4.5,.0376-5.89062-.01562-3.17188-.04688-3.48438,.01562-1.0625h7.9375Z"/><path d="M45.625,108.95312v-1.90625c-.01074-1.32275-.03125-2.13525-.0625-2.4375-.03125-.30176-.12549-.57275-.28174-.8125-.37549-.58301-1.25244-.875-2.62939-.875-2.12793,0-3.77148,.66699-4.92969,2-.46924,.54199-.86572,.8125-1.18896,.8125-.24023,0-.44873-.08301-.62646-.25-.17676-.1665-.26562-.35938-.26562-.57812,0-.65625,.77588-1.33301,2.32812-2.03125,1.479-.6665,3.39062-1,5.73438-1,3.854,0,6.57275,.5835,8.15625,1.75,.6875,.51074,1.13525,1.0835,1.34375,1.71875,.20801,.63574,.3125,1.75537,.3125,3.35938v6.20312c-.04199,1.146-.00781,2.00781,.10156,2.58594s.35645,1.20068,.74219,1.86719h-8.75v-1.64062c-.9585,.65625-1.90918,1.15137-2.85156,1.48438-.94287,.33301-1.87256,.5-2.78906,.5-1.55225,0-2.93262-.45312-4.14062-1.35938-1.57324-1.1875-2.35938-2.729-2.35938-4.625,0-1.67676,.63623-3.03125,1.90869-4.0625,1.48096-1.21875,3.31689-1.82812,5.50732-1.82812,.89648,0,1.68945,.08105,2.37793,.24219,.68848,.16162,1.47559,.45605,2.3623,.88281Zm0,1.125c-1.3125-.65625-2.32812-.98438-3.04688-.98438-.60449,0-1,.23975-1.1875,.71875-.10449,.26074-.15625,1.01562-.15625,2.26562v3.73438c.01025,.82324,.03613,1.32324,.07812,1.5,.104,.47949,.45801,.71875,1.0625,.71875,.479,0,1.0127-.14307,1.60156-.42969,.58838-.28613,1.12744-.66406,1.61719-1.13281l.03125-6.39062Z"/><path d="M64.40625,105.6875v10.4375l-.01562,1c0,.646,.08057,1.07568,.24219,1.28906,.16113,.21387,.48682,.32031,.97656,.32031,1.229,0,2.4375-.37744,3.625-1.13281,1.1875-.75488,2.15625-1.76807,2.90625-3.03906,.229-.38525,.45312-.57812,.67188-.57812,.15625,0,.29932,.07031,.42969,.21094,.12988,.14062,.19531,.28906,.19531,.44531,0,.375-.30225,.90381-.90625,1.58594-.60449,.68262-1.30762,1.29443-2.10938,1.83594-1.63574,1.09375-3.38574,1.64062-5.25,1.64062-2.55225,0-4.66162-.7915-6.32812-2.375-1.896-1.78125-2.84375-3.96338-2.84375-6.54688,0-2.6665,1-4.88525,3-6.65625,1.67676-1.5,3.74463-2.25,6.20312-2.25,1.95801,0,3.67188,.46387,5.14062,1.39062,.625,.396,1.13525,.82031,1.53125,1.27344,.39551,.45312,.59375,.83594,.59375,1.14844,0,.15625-.05762,.28906-.17188,.39844-.11475,.10938-.25537,.16406-.42188,.16406-.21875,0-.49512-.25-.82812-.75-.47949-.69775-1.23438-1.30469-2.26562-1.82031s-2.00537-.77344-2.92188-.77344c-.61475,0-1.01074,.17188-1.1875,.51562-.17725,.34375-.26562,1.09912-.26562,2.26562Z"/><path d="M88.66064,105.55078l1.77734,2.95557,1.69922,2.87744c1.67334,2.77344,2.81396,4.60547,3.42188,5.49707s1.28613,1.71777,2.03467,2.47852h-9.29443l-2.8833-5.04688c-1.06055-1.88525-1.87061-3.25-2.43164-4.09375v.71875l.01562,2.8125,.03125,4.875,.01562,.73438h-8.01562l.0752-7.53125,.01855-4.34375-.0752-8.71875-.01855-.73438h8.01562l-.0625,10.26562v.84375c2.90234-2.61426,4.9043-4.32812,6.00684-5.14062,1.43555-1.08301,2.68896-1.625,3.76074-1.625,.80078,0,1.20117,.29199,1.20117,.875,0,.2085-.07275,.38281-.21777,.52344-.14551,.14062-.32715,.21094-.54492,.21094-.12451,0-.26953-.02588-.43555-.07812-.29102-.08301-.51416-.125-.66992-.125-.43555,0-.89746,.12695-1.38525,.38037s-1.16748,.71631-2.03906,1.38916Z"/><path d="M115,98.03125l-.04688,3.70312,.07812,5.6875,.04688,3.78125c0,2.59375-.73975,4.65137-2.21875,6.17188-.86475,.896-1.9375,1.55762-3.21875,1.98438s-2.81787,.64062-4.60938,.64062c-2.625,0-4.646-.52637-6.0625-1.57812-.625-.46875-1.146-1.04932-1.5625-1.74219-.41699-.69238-.625-1.33057-.625-1.91406,0-.44775,.21875-.67188,.65625-.67188,.4165,0,.67188,.31787,.76562,.95312,.1875,1.3335,1.02051,2.36475,2.5,3.09375,1.1875,.5835,2.46338,.875,3.82812,.875,.19775,0,.52051-.01562,.96875-.04688l.01562-.64062,.03125-4.26562,.0625-11.39062-.10938-4.64062h9.5Z"/><path d="M129.79688,108.95312v-1.90625c-.01074-1.32275-.03125-2.13525-.0625-2.4375-.03125-.30176-.12549-.57275-.28174-.8125-.37549-.58301-1.25244-.875-2.62939-.875-2.12793,0-3.77148,.66699-4.92969,2-.46924,.54199-.86572,.8125-1.18896,.8125-.24023,0-.44873-.08301-.62646-.25-.17676-.1665-.26562-.35938-.26562-.57812,0-.65625,.77588-1.33301,2.32812-2.03125,1.479-.6665,3.39062-1,5.73438-1,3.854,0,6.57275,.5835,8.15625,1.75,.6875,.51074,1.13525,1.0835,1.34375,1.71875,.20801,.63574,.3125,1.75537,.3125,3.35938v6.20312c-.04199,1.146-.00781,2.00781,.10156,2.58594s.35645,1.20068,.74219,1.86719h-8.75v-1.64062c-.9585,.65625-1.90918,1.15137-2.85156,1.48438-.94287,.33301-1.87256,.5-2.78906,.5-1.55225,0-2.93262-.45312-4.14062-1.35938-1.57324-1.1875-2.35938-2.729-2.35938-4.625,0-1.67676,.63623-3.03125,1.90869-4.0625,1.48096-1.21875,3.31689-1.82812,5.50732-1.82812,.89648,0,1.68945,.08105,2.37793,.24219,.68848,.16162,1.47559,.45605,2.3623,.88281Zm0,1.125c-1.3125-.65625-2.32812-.98438-3.04688-.98438-.60449,0-1,.23975-1.1875,.71875-.10449,.26074-.15625,1.01562-.15625,2.26562v3.73438c.01025,.82324,.03613,1.32324,.07812,1.5,.104,.47949,.45801,.71875,1.0625,.71875,.479,0,1.0127-.14307,1.60156-.42969,.58838-.28613,1.12744-.66406,1.61719-1.13281l.03125-6.39062Z"/><path d="M148.57812,105.6875v10.4375l-.01562,1c0,.646,.08057,1.07568,.24219,1.28906,.16113,.21387,.48682,.32031,.97656,.32031,1.229,0,2.4375-.37744,3.625-1.13281,1.1875-.75488,2.15625-1.76807,2.90625-3.03906,.229-.38525,.45312-.57812,.67188-.57812,.15625,0,.29932,.07031,.42969,.21094,.12988,.14062,.19531,.28906,.19531,.44531,0,.375-.30225,.90381-.90625,1.58594-.60449,.68262-1.30762,1.29443-2.10938,1.83594-1.63574,1.09375-3.38574,1.64062-5.25,1.64062-2.55225,0-4.66162-.7915-6.32812-2.375-1.896-1.78125-2.84375-3.96338-2.84375-6.54688,0-2.6665,1-4.88525,3-6.65625,1.67676-1.5,3.74463-2.25,6.20312-2.25,1.95801,0,3.67188,.46387,5.14062,1.39062,.625,.396,1.13525,.82031,1.53125,1.27344,.39551,.45312,.59375,.83594,.59375,1.14844,0,.15625-.05762,.28906-.17188,.39844-.11475,.10938-.25537,.16406-.42188,.16406-.21875,0-.49512-.25-.82812-.75-.47949-.69775-1.23438-1.30469-2.26562-1.82031s-2.00537-.77344-2.92188-.77344c-.61475,0-1.01074,.17188-1.1875,.51562-.17725,.34375-.26562,1.09912-.26562,2.26562Z"/><path d="M172.83252,105.55078l1.77734,2.95557,1.69922,2.87744c1.67334,2.77344,2.81396,4.60547,3.42188,5.49707s1.28613,1.71777,2.03467,2.47852h-9.29443l-2.8833-5.04688c-1.06055-1.88525-1.87061-3.25-2.43164-4.09375v.71875l.01562,2.8125,.03125,4.875,.01562,.73438h-8.01562l.0752-7.53125,.01855-4.34375-.0752-8.71875-.01855-.73438h8.01562l-.0625,10.26562v.84375c2.90234-2.61426,4.9043-4.32812,6.00684-5.14062,1.43555-1.08301,2.68896-1.625,3.76074-1.625,.80078,0,1.20117,.29199,1.20117,.875,0,.2085-.07275,.38281-.21777,.52344-.14551,.14062-.32715,.21094-.54492,.21094-.12451,0-.26953-.02588-.43555-.07812-.29102-.08301-.51416-.125-.66992-.125-.43555,0-.89746,.12695-1.38525,.38037s-1.16748,.71631-2.03906,1.38916Z"/></g><g><path d="M55.86719,145.95703l.51562-.09375-.23438,3.76172-.08203,.08203c-1.59375-.02344-3.26172-.03516-5.00391-.03516-1.61719,0-3.10547,.01172-4.46484,.03516l-.08203-.96094c.73438-.47656,1.39453-.91797,1.98047-1.32422s1.09375-.78516,1.52344-1.13672c.42969-.34375,.80859-.67188,1.13672-.98438s.60352-.62305,.82617-.93164,.39258-.62305,.50977-.94336,.17578-.65625,.17578-1.00781c0-.71875-.26172-1.28906-.78516-1.71094s-1.16406-.63281-1.92188-.63281c-.89062,0-1.78906,.24219-2.69531,.72656l-.44531-.77344c1.46094-.99219,2.92578-1.48828,4.39453-1.48828,1.10156,0,2.01758,.26758,2.74805,.80273s1.0957,1.2793,1.0957,2.23242c0,.59375-.13281,1.14648-.39844,1.6582s-.65234,1.01367-1.16016,1.50586-1.12891,.99023-1.86328,1.49414-1.57422,1.03711-2.51953,1.59961l.01172,.05859h5.82422l.91406-1.93359Z"/><path d="M57.73047,139.92188l-.05859-.49219c1.57031-.23438,3.14062-.49219,4.71094-.77344l.10547,.09375c-.09375,1.36719-.14062,2.77734-.14062,4.23047v2.85938c0,1.03125,.00781,1.86328,.02344,2.49609,.00781,.22656,.11719,.36719,.32812,.42188l1.86328,.48047,.03516,.46875c-1.44531-.02344-2.55078-.03516-3.31641-.03516s-1.86719,.01172-3.30469,.03516l-.04688-.46875,1.91016-.48047c.20312-.05469,.30859-.17969,.31641-.375,.01562-.63281,.02344-1.33594,.02344-2.10938v-1.94531c0-1.57031-.01562-2.96094-.04688-4.17188l-2.40234-.23438Z"/><path d="M76.08203,146.07422c0,.46875,.00195,.89062,.00586,1.26562s.00977,.71094,.01758,1.00781c.00781,.17969,.10938,.30078,.30469,.36328l1.61719,.49219,.02344,.50391c-1.13281-.02344-2.16406-.03516-3.09375-.03516-.94531,0-1.91406,.01172-2.90625,.03516l-.04688-.50391,1.44141-.43359c.20312-.0625,.30859-.18359,.31641-.36328,.00781-.3125,.01367-.66211,.01758-1.04883s.00586-.81445,.00586-1.2832v-9.50391c0-.39844-.00195-.75781-.00586-1.07812s-.00977-.60938-.01758-.86719c-.00781-.20312-.10156-.33594-.28125-.39844l-1.45312-.45703-.02344-.50391c1.00781,.03125,1.99121,.04688,2.95068,.04688,.64551,0,1.27002-.01562,1.87256-.04688,.60205-.03125,1.15137-.04688,1.64746-.04688,1.85059,0,3.25049,.36133,4.19971,1.08398,.94873,.72266,1.42334,1.79883,1.42334,3.22852,0,1.67969-.54883,2.98438-1.64551,3.91406-1.09766,.92969-2.63672,1.39453-4.61768,1.39453-.54492,0-1.12891-.03516-1.75244-.10547v3.33984Zm0-4.32422c.54688,.09375,1.08594,.14062,1.61719,.14062,1.25,0,2.20117-.32227,2.85352-.9668s.97852-1.63086,.97852-2.95898c0-1.27344-.31055-2.22266-.93164-2.84766s-1.59961-.9375-2.93555-.9375c-.52344,0-1.05078,.03125-1.58203,.09375v7.47656Z"/><path d="M96.15625,144.03516c0,1.78125-.5376,3.2207-1.61328,4.31836-1.0752,1.09766-2.44189,1.64648-4.09961,1.64648-1.61914,0-2.92725-.51758-3.92432-1.55273s-1.49561-2.38867-1.49561-4.06055c0-1.71875,.52197-3.12305,1.56592-4.21289,1.04443-1.08984,2.42627-1.63477,4.14697-1.63477,1.62695,0,2.93701,.50195,3.93018,1.50586s1.48975,2.33398,1.48975,3.99023Zm-8.73047,.10547c0,1.46094,.27246,2.65039,.81738,3.56836s1.35449,1.37695,2.42822,1.37695c1.00439,0,1.76904-.4043,2.29443-1.21289s.78809-2.00586,.78809-3.5918c0-1.49219-.27637-2.66797-.8291-3.52734-.55225-.85938-1.35449-1.28906-2.40527-1.28906-.99609,0-1.76074,.38672-2.29395,1.16016s-.7998,1.94531-.7998,3.51562Z"/><path d="M97.76172,139.35938c1.36865-.25781,2.63818-.53125,3.80859-.82031l.10547,.08203c-.04688,1.01562-.07031,2.13281-.07031,3.35156v4.5c0,.9375,.00781,1.58594,.02344,1.94531,.01562,.21094,.11328,.34766,.29297,.41016l1.35938,.39844,.02344,.48047c-1.07812-.02344-2.00195-.03516-2.77148-.03516s-1.68164,.01172-2.73633,.03516l-.04688-.48047,1.35938-.39844c.17969-.0625,.27734-.18359,.29297-.36328,.01562-.30469,.02344-.81641,.02344-1.53516v-3.91406c0-1.02344-.01562-1.96875-.04688-2.83594l-1.55859-.42188-.05859-.39844Zm3.96094-4.96875c0,.41406-.12891,.75195-.38672,1.01367s-.58984,.39258-.99609,.39258c-.39062,0-.70898-.12109-.95508-.36328s-.36914-.5625-.36914-.96094c0-.42188,.12891-.75586,.38672-1.00195s.59766-.36914,1.01953-.36914c.38281,0,.69531,.11133,.9375,.33398s.36328,.54102,.36328,.95508Z"/><path d="M104.55859,139.35938c1.3125-.25,2.55176-.52344,3.71729-.82031l.11768,.08203v1.35938c1.36084-.96094,2.62793-1.44141,3.80127-1.44141,1.11084,0,1.98096,.31055,2.61035,.93164,.62988,.62109,.94482,1.50195,.94482,2.64258v4.13672c0,.97656,.00781,1.69922,.02344,2.16797,.00781,.21094,.10938,.34766,.30469,.41016l1.30078,.39844,.02344,.48047c-1.03125-.02344-1.93164-.03516-2.70117-.03516s-1.62305,.01172-2.56055,.03516l-.04688-.48047,1.17188-.33984c.17969-.0625,.27734-.18359,.29297-.36328,.00781-.10938,.01172-.35547,.01172-.73828v-5.10938c0-.96094-.22998-1.65039-.68994-2.06836s-1.13818-.62695-2.03418-.62695c-.7876,0-1.60205,.22656-2.44385,.67969v5.12109c0,.97656,.00781,1.87109,.02344,2.68359,.00781,.21094,.09766,.34375,.26953,.39844l1.21875,.36328,.02344,.48047c-.96875-.02344-1.83789-.03516-2.60742-.03516s-1.67773,.01172-2.72461,.03516l-.04688-.48047,1.38281-.39844c.17188-.07031,.26172-.19141,.26953-.36328,.00781-.5,.01172-.98047,.01172-1.44141v-3.99609c0-1.02344-.01562-1.97266-.04688-2.84766l-1.55859-.42188-.05859-.39844Z"/><path d="M122.08984,140.08594c-.04688,2.64062-.07031,4.76953-.07031,6.38672,0,.8125,.12109,1.37305,.36328,1.68164s.70312,.46289,1.38281,.46289c.53906,0,1.24219-.07031,2.10938-.21094l.07031,.52734c-1.35156,.67969-2.55859,1.01953-3.62109,1.01953-.86572,0-1.51025-.22852-1.93262-.68555-.42285-.45703-.63379-1.14648-.63379-2.06836,0-1.51562,.02734-3.91016,.08203-7.18359l-1.61719-.39844-.07031-.48047,1.80713-.15234,.82666-2.83594c.44678-.11719,.854-.23047,1.22168-.33984l.11719,.08203c-.02344,.94531-.03516,1.82812-.03516,2.64844v.43359h3.52734v1.11328h-3.52734Z"/><path d="M133.01172,139.72266c-.45312-.125-.94531-.1875-1.47656-.1875-.73438,0-1.32617,.14258-1.77539,.42773s-.67383,.67383-.67383,1.16602c0,.47656,.14648,.85156,.43945,1.125s.83789,.54297,1.63477,.80859l.96094,.32812c1.07812,.36719,1.86914,.78711,2.37305,1.25977s.75586,1.0918,.75586,1.85742c0,1.08594-.42188,1.93945-1.26562,2.56055s-1.91016,.93164-3.19922,.93164c-1.1875,0-2.40234-.24219-3.64453-.72656,.26562-1.01562,.48047-2.00781,.64453-2.97656l.45703-.07031,.84375,2.51953c.44531,.17188,1.01172,.25781,1.69922,.25781,.72656,0,1.30664-.14844,1.74023-.44531s.65039-.71484,.65039-1.25391c0-.5-.14648-.89453-.43945-1.18359s-.75977-.53906-1.40039-.75l-1.21875-.41016c-1.05469-.35156-1.7832-.77539-2.18555-1.27148s-.60352-1.11133-.60352-1.8457c0-1.02344,.38867-1.83008,1.16602-2.41992s1.80273-.88477,3.07617-.88477c1.1875,0,2.26562,.17188,3.23438,.51562-.21875,.89062-.41797,1.83203-.59766,2.82422l-.44531,.08203-.75-2.23828Z"/></g></g></svg>