<?xml version="1.0" encoding="UTF-8"?><svg id="a" xmlns="http://www.w3.org/2000/svg" xmlns:xlink="http://www.w3.org/1999/xlink" viewBox="0 0 80 110"><defs><style>.c{fill:#fff;}.d{clip-path:url(#b);}.e{fill:none;}</style><clipPath id="b"><rect class="e" x="10" y="10" width="60" height="90" rx="4" ry="4"/></clipPath></defs><g><rect class="c" x=".5" y=".5" width="79" height="109" rx="7.5" ry="7.5"/><path d="M72,1c3.8598,0,7,3.1402,7,7V102c0,3.8598-3.1402,7-7,7H8c-3.8598,0-7-3.1402-7-7V8C1,4.1402,4.1402,1,8,1H72m0-1H8C3.58173,0,0,3.58173,0,8V102c0,4.41827,3.58173,8,8,8H72c4.41827,0,8-3.58173,8-8V8c0-4.41827-3.58173-8-8-8h0Z"/></g><g><path d="M23.00342,18.29688c.42188,.45898,.63281,1.07812,.63281,1.85938,0,.94824-.37256,1.69043-1.11719,2.22656-.74512,.53711-1.72656,.80469-2.94531,.80469-1.1875,0-2.27637-.20801-3.26562-.625-.28125-.11426-.42188-.31738-.42188-.60938,0-.1875,.05957-.3457,.17969-.47656,.11963-.12988,.27344-.19531,.46094-.19531,.09375,0,.19238,.02148,.29688,.0625,.76025,.30273,1.58838,.45312,2.48438,.45312,.86426,0,1.55957-.14062,2.08594-.42188,.52588-.28125,.78906-.71289,.78906-1.29688,0-1.30176-1.146-1.95312-3.4375-1.95312h-.25c-.17725,0-.3335-.06738-.46875-.20312-.13574-.13477-.20312-.29102-.20312-.46875,0-.17676,.06738-.33301,.20312-.46875,.13525-.13477,.2915-.20312,.46875-.20312h.09375c1.05176,0,1.84863-.1582,2.39062-.47656,.5415-.31738,.8125-.7832,.8125-1.39844,0-.50977-.21387-.90625-.64062-1.1875-.42725-.28125-1.03125-.42188-1.8125-.42188-.88574,0-1.69287,.17188-2.42188,.51562-.10449,.04199-.19824,.0625-.28125,.0625-.15625,0-.29443-.05664-.41406-.17188-.12012-.11426-.17969-.25488-.17969-.42188,0-.23926,.10938-.42188,.32812-.54688,.98926-.53125,2.02051-.79688,3.09375-.79688,1.19775,0,2.12744,.24512,2.78906,.73438,.66113,.49023,.99219,1.1875,.99219,2.09375,0,1.27148-.62012,2.14062-1.85938,2.60938,.65625,.15625,1.19531,.46387,1.61719,.92188Z"/><path d="M19.20068,25.20117c.17969-.21875,.4082-.32812,.68555-.32812s.50586,.10938,.68555,.32812l4.16016,4.97461c.14844,.17578,.22266,.37988,.22266,.6123s-.07422,.43652-.22266,.6123l-4.16016,4.97461c-.17969,.21484-.4082,.32227-.68555,.32227s-.50586-.10742-.68555-.32227l-4.16016-4.97461c-.14844-.17969-.22266-.38477-.22266-.61523s.07422-.43359,.22266-.60938l4.16016-4.97461Z"/></g><g class="d"><path d="M77.11621,65.21875l-25.85553-26.53125c-1.11694-1.1665-2.53717-1.75-4.26068-1.75-1.72406,0-3.14429,.5835-4.26068,1.75l-4.65948,4.78125-1.94904,2-5.84723,6-1.94904,2-5.84717,6-1.9491,2-3.65448,3.75c-.66321,.67365-1.07831,1.42578-1.26477,2.25-.073,.32281-.11902,.65411-.11902,1,0,.34491,.04553,.67645,.1181,1,.1861,.82977,.60168,1.59198,1.26569,2.28125l3.62402,3.71875,1.9491,2,5.84717,6,1.94904,2,5.84723,6,1.94904,2,4.68994,4.8125c1.11639,1.14551,2.53662,1.71875,4.26068,1.71875,1.72351,0,3.14374-.57324,4.26068-1.71875l25.85553-26.53125c.92236-.9375,1.38379-2.02588,1.38379-3.26562,0-1.23926-.46143-2.32812-1.38379-3.26562Zm-32.93201-25.14844c.73969-.77289,1.6344-1.13281,2.8158-1.13281v4.53125h-6.12769l3.31189-3.39844Zm-5.26093,5.39844h8.07672v6h-13.92389l5.84717-6Zm-7.7962,8h15.87292v6H25.27991l5.84717-6Zm-12.81091,13.14581l5.01471-5.14581h23.66913v6H17.71185c.13422-.29626,.33215-.5777,.60431-.85419Zm.008,3.74786c-.27911-.28979-.48346-.58417-.61926-.89368h29.2951v6H23.30042l-4.97626-5.10632Zm6.92535,7.10632h21.75049v6h-15.90332l-5.84717-6Zm7.79626,8h13.95422v6h-8.10706l-5.84717-6Zm11.12585,11.41663l-3.32959-3.41663h6.15796v4.53125c-1.18854,0-2.08728-.35419-2.82837-1.11462Z"/></g></svg>