<?xml version="1.0" encoding="UTF-8"?><svg id="b" xmlns="http://www.w3.org/2000/svg" viewBox="0 0 128 128"><defs><style>.d{fill:#fff;}.e{fill:#303030;}</style></defs><g id="c"><path class="d" d="M128,64.03264c0-29.31837,0-43.97756-9.9949-53.97246S93.34953-.23005,64.03264,.06528C34.41592,.36364,19.60756,.51282,10.06019,10.06018,.51281,19.60755,.36366,34.41591,.06529,64.03264-.23006,93.34953,.06529,108.0102,10.06019,118.0051s24.65407,9.9949,53.97246,9.9949,43.97756,0,53.97246-9.9949,9.9949-24.65409,9.9949-53.97246Z"/><g><path class="e" d="M104.45838,65.2461c.01081-.23557,.03871-.46964,.03942-.70607,.00008-.01301,.00219-.02594,.00219-.03895,.00086-1.22195-.12875-2.45487-.39708-3.69954-.54856-2.54093-1.74535-4.92136-3.59101-7.14192l-28.12627-33.58301c-1.44443-1.73846-3.20358-2.89513-5.27618-3.47065-1.03662-.28744-2.07151-.43117-3.10468-.43117l-.00455,.00031-.00227-.00016v.00031c-1.0309,.00063-2.06007,.14388-3.08752,.4307-1.06154,.29653-2.04165,.75364-2.94669,1.35893-.69651,.4658-1.33731,1.04171-1.94111,1.69042-.13424,.14419-.27882,.26801-.40844,.42129l-4.58383,5.48095-1.65398,1.97763-4.9617,5.93281-1.6539,1.97763-4.96178,5.93281-1.6539,1.97763-4.9617,5.93289-1.65398,1.97755-2.00137,2.39312c-1.06906,1.26772-1.89707,2.59358-2.53449,3.9656-.40484,.87142-.72363,1.76361-.95426,2.6772-.04232,.16762-.10595,.33007-.14239,.49912-.54856,2.54153-.5285,5.03543,.06018,7.48294,.58805,2.44751,1.64505,4.67434,3.16972,6.68049,1.52468,2.00615,3.44369,3.61108,5.75766,4.81477,2.31335,1.20369,4.91508,1.80554,7.80394,1.80554,1.42821,0,2.80532-.17217,4.13738-.49637,.92933-.22616,1.83594-.52897,2.71849-.91296,.83788-.36448,1.65696-.79227,2.45268-1.29898,1.47131-.93701,2.73863-2.04972,3.82117-3.32175,.56-.65803,1.06021-1.36763,1.51613-2.11539,.36095-.59189,.70646-1.19711,1.00214-1.84519l1.88578-4.05242v9.14806c0,1.0131-.12358,1.9795-.36941,2.89951-.24748,.92628-.61885,1.80554-1.11514,2.63746-.88788,1.48784-2.05983,2.69655-3.4853,3.65676-.16378,.11034-.31597,.23212-.48688,.33548-.61062,.36926-1.25541,.65192-1.91666,.89242-1.13512,.41291-2.33607,.65835-3.62032,.69244h-.24074c-1.28394,0-2.38732,.45452-3.31015,1.36418-.92283,.90904-1.38425,2.00615-1.38425,3.29009s.46142,2.38732,1.38425,3.31015c.92283,.92283,2.02621,1.38425,3.31015,1.38425h34.06449c1.28394,0,2.38732-.46142,3.31015-1.38425s1.38425-2.02621,1.38425-3.31015l-.00078-.00854c-.00219-1.28002-.46275-2.37463-1.38346-3.28155-.92283-.90967-2.02621-1.36418-3.31015-1.36418h-.24074c-.0815-.00219-.15798-.01708-.23886-.02077-1.93719-.08824-3.70637-.60122-5.29813-1.56409-1.65884-1.00308-2.9829-2.33341-3.97218-3.99225-.92996-1.55775-1.40572-3.28743-1.46206-5.17603-.0036-.12178-.02249-.23776-.02249-.36094v-9.13914l1.88163,4.0435c1.39052,3.04935,3.49698,5.4768,6.31938,7.28234,2.82178,1.80554,5.93132,2.70831,9.32861,2.70831l.00157-.00008,.00259,.00008c.50264,0,.98513-.04208,1.47037-.07852l.0036-.00039c.49409-.0373,.97753-.09709,1.45352-.17225,.09709-.01512,.19341-.03213,.2898-.0489,.45985-.08056,.9146-.17201,1.35729-.28846l.01426-.00306c.02265-.00596,.04396-.01497,.06661-.021,.52724-.14168,1.04814-.29677,1.55101-.48955,.54738-.20328,1.08121-.43485,1.59748-.70341,.0366-.01904,.06724-.04412,.1036-.0634,.64236-.33971,1.24758-.71743,1.82858-1.11976,.07155-.05039,.13886-.10485,.20947-.15618,.56862-.40672,1.10503-.84619,1.61315-1.31442,.00987-.00909,.02147-.01646,.03135-.02555,.02382-.02202,.04537-.04631,.06904-.06849,.48438-.45374,.94109-.93568,1.36959-1.44623,.1036-.12249,.21433-.23776,.31425-.36401,.07006-.08847,.15015-.16668,.21864-.25672,1.52468-2.00615,2.57415-4.23298,3.14966-6.68049,.03903-.16606,.05454-.33407,.0884-.5006,.01418-.06975,.01959-.1402,.03299-.21002,.08628-.45428,.16676-.90912,.21472-1.36661,.03589-.31903,.04302-.64048,.05948-.96115Zm-43.66832,11.44418v-8.68924l3.20789,3.20789v10.89459l-3.36642-3.36642c.09733-.66806,.15853-1.34796,.15853-2.04681Zm.81077-57.61094c.79784-.22279,1.60437-.33556,2.39712-.33619v5.25597l-4.1601-4.1601c.55373-.31824,1.13324-.58374,1.76299-.75967Zm-4.02626,2.6558c.08307-.09819,.17421-.17546,.25923-.26864l6.16414,6.16414v10.89451l-11.14465-11.14465,4.72128-5.64536Zm-6.37526,7.62299l12.79863,12.79863v10.89451l-17.76034-17.76034,4.9617-5.93281Zm-6.6156,7.91044l19.41424,19.41424v10.89459l-24.37602-24.37602,4.96178-5.93281Zm-3.89531,41.74884c-2.45903,0-4.68586-.50992-6.6189-1.51574-1.96384-1.02149-3.61178-2.39775-4.89831-4.09044-1.30157-1.71268-2.21578-3.63937-2.71748-5.72725-.40695-1.69199-.47152-3.43609-.23024-5.19735l16.40673,16.40673c-.63311,.07954-1.27861,.12405-1.94182,.12405Zm7.92932-2.30645c-.98693,.62841-2.00129,1.11937-3.04927,1.48918l-18.62431-18.62431c.56157-1.4793,1.40744-2.90955,2.55369-4.2688l1.85459-2.2175,20.63838,20.6383c-.94234,1.14249-2.05019,2.14063-3.37308,2.98313Zm7.2763-10.25215l-1.89386,4.07006c-.16472,.36103-.36722,.68413-.55396,1.0229l-20.43988-20.43988,4.9617-5.93289,19.85246,19.85246c-.82197,.1322-1.5583,.63617-1.92646,1.42735Zm-8.62544,28.12635h-.28086c-.60443,0-1.05135-.18902-1.49443-.6321s-.6321-.89-.6321-1.49443c0-.59683,.18494-1.03372,.61901-1.46128,.44449-.43814,.89532-.62512,1.50751-.62512h.24074l.0681-.00086c1.97183-.05235,3.81773-.49707,5.51966-1.29201l5.50579,5.50579h-11.05344Zm14.68489,0l-6.85854-6.85854c1.55289-1.1265,2.8543-2.51858,3.8479-4.18369,.37043-.62089,.66681-1.27179,.92636-1.93672l4.12876,4.12876v8.85019h-2.04447Z"/><g><path class="e" d="M36.96787,105.42236c.28125,.20312,.49121,.4248,.62988,.66504s.20801,.49902,.20801,.77637c0,.44922-.17383,.86328-.52148,1.24219-.42578,.46875-1.06641,.72266-1.92188,.76172-.47266,.02344-1.13672,.03516-1.99219,.03516h-2.90039l.00586-.27539,.01172-1.13672,.01758-2.23828-.02344-2.4375-.01172-1.91016h3.14062c.78516,0,1.3252,.0127,1.62012,.03809s.59863,.08691,.91113,.18457c.33203,.10547,.64258,.25977,.93164,.46289s.51367,.42578,.67383,.66797c.25,.37891,.375,.80273,.375,1.27148,0,.42188-.10352,.80273-.31055,1.14258s-.48828,.58984-.84375,.75Zm-.47461,.15234c-.16797,.03516-.32422,.05273-.46875,.05273-.30859,0-.55762-.05078-.74707-.15234s-.28418-.23438-.28418-.39844c0-.08984,.03125-.13477,.09375-.13477,.04688,0,.11133,.01953,.19336,.05859,.26953,.13672,.5625,.20508,.87891,.20508,.57422,0,1.00781-.22656,1.30078-.67969,.1875-.28516,.28125-.61133,.28125-.97852,0-.55859-.2168-1.03711-.65039-1.43555-.30859-.28906-.67676-.49805-1.10449-.62695s-.96387-.19336-1.6084-.19336h-.32227l-.03516,3.51562,.03516,3.70898,.52734,.00586c.58203,0,1.03516-.03223,1.35938-.09668s.59375-.1748,.80859-.33105c.44531-.32812,.66797-.74219,.66797-1.24219,0-.25391-.07715-.4873-.23145-.7002s-.38574-.40527-.69434-.57715Z"/><path class="e" d="M42.05966,100.90478l.00586,.29883-.01172,2.0625-.00586,.89062-.01172,1.62305,.02344,2.89453v.22852h-2.99414v-.27539l.01416-.93164,.00684-1.6875,.01416-2.20898-.00586-1.18945-.01758-1.30664,.00586-.39844h2.97656Z"/><path class="e" d="M47.5792,105.00049v-.71484c-.00391-.49609-.01172-.80078-.02344-.91406s-.04688-.21484-.10547-.30469c-.14111-.21875-.46973-.32812-.98633-.32812-.79785,0-1.41406,.25-1.84863,.75-.17578,.20312-.32471,.30469-.4458,.30469-.08984,0-.16846-.03125-.23486-.09375s-.09961-.13477-.09961-.2168c0-.24609,.29102-.5,.87305-.76172,.55469-.25,1.27148-.375,2.15039-.375,1.44531,0,2.46484,.21875,3.05859,.65625,.25781,.19141,.42578,.40625,.50391,.64453s.11719,.6582,.11719,1.25977v2.32617c-.01562,.42969-.00293,.75293,.03809,.96973s.13379,.4502,.27832,.7002h-3.28125v-.61523c-.35938,.24609-.71582,.43164-1.06934,.55664s-.70215,.1875-1.0459,.1875c-.58203,0-1.09961-.16992-1.55273-.50977-.58984-.44531-.88477-1.02344-.88477-1.73438,0-.62891,.23877-1.13672,.71582-1.52344,.55518-.45703,1.24365-.68555,2.06494-.68555,.33643,0,.63379,.03027,.89209,.09082,.25781,.06055,.55322,.1709,.88574,.33105Zm0,.42188c-.49219-.24609-.87305-.36914-1.14258-.36914-.22656,0-.375,.08984-.44531,.26953-.03906,.09766-.05859,.38086-.05859,.84961v1.40039c.00391,.30859,.01367,.49609,.0293,.5625,.03906,.17969,.17188,.26953,.39844,.26953,.17969,0,.37988-.05371,.60059-.16113s.42285-.24902,.60645-.4248l.01172-2.39648Z"/><path class="e" d="M54.62216,103.77588v3.91406l-.00586,.375c0,.24219,.03027,.40332,.09082,.4834s.18262,.12012,.36621,.12012c.46094,0,.91406-.1416,1.35938-.4248s.80859-.66309,1.08984-1.13965c.08594-.14453,.16992-.2168,.25195-.2168,.05859,0,.1123,.02637,.16113,.0791s.07324,.1084,.07324,.16699c0,.14062-.11328,.33887-.33984,.59473s-.49023,.48535-.79102,.68848c-.61328,.41016-1.26953,.61523-1.96875,.61523-.95703,0-1.74805-.29688-2.37305-.89062-.71094-.66797-1.06641-1.48633-1.06641-2.45508,0-1,.375-1.83203,1.125-2.49609,.62891-.5625,1.4043-.84375,2.32617-.84375,.73438,0,1.37695,.17383,1.92773,.52148,.23438,.14844,.42578,.30762,.57422,.47754s.22266,.31348,.22266,.43066c0,.05859-.02148,.1084-.06445,.14941s-.0957,.06152-.1582,.06152c-.08203,0-.18555-.09375-.31055-.28125-.17969-.26172-.46289-.48926-.84961-.68262s-.75195-.29004-1.0957-.29004c-.23047,0-.37891,.06445-.44531,.19336s-.09961,.41211-.09961,.84961Z"/><path class="e" d="M63.71738,103.72461l.6665,1.1084,.63721,1.0791c.62744,1.04004,1.05518,1.72705,1.2832,2.06104,.22803,.33447,.48242,.64453,.76318,.92969h-3.48535l-1.08154-1.89258c-.39746-.70703-.70117-1.21875-.91162-1.53516v.26953l.00586,1.05469,.01172,1.82812,.00586,.27539h-3.00586l.02832-2.82422,.00684-1.62891-.02832-3.26953-.00684-.27539h3.00586l-.02344,3.84961v.31641c1.08838-.98047,1.83936-1.62305,2.25244-1.92773,.53857-.40625,1.0083-.60938,1.41016-.60938,.30029,0,.45068,.10938,.45068,.32812,0,.07812-.02734,.14355-.08154,.19629-.05469,.05273-.12256,.0791-.20459,.0791-.04639,0-.10107-.00977-.16309-.0293-.10938-.03125-.19287-.04688-.25146-.04688-.16309,0-.33643,.04785-.51953,.14258-.18262,.09521-.4375,.26855-.76465,.521Z"/><path class="e" d="M73.59482,100.90478l-.01758,1.38867,.0293,2.13281,.01758,1.41797c0,.97266-.27734,1.74414-.83203,2.31445-.32422,.33594-.72656,.58398-1.20703,.74414s-1.05664,.24023-1.72852,.24023c-.98438,0-1.74219-.19727-2.27344-.5918-.23438-.17578-.42969-.39355-.58594-.65332s-.23438-.49902-.23438-.71777c0-.16797,.08203-.25195,.24609-.25195,.15625,0,.25195,.11914,.28711,.35742,.07031,.5,.38281,.88672,.9375,1.16016,.44531,.21875,.92383,.32812,1.43555,.32812,.07422,0,.19531-.00586,.36328-.01758l.00586-.24023,.01172-1.59961,.02344-4.27148-.04102-1.74023h3.5625Z"/><path class="e" d="M79.14365,105.00049v-.71484c-.00391-.49609-.01172-.80078-.02344-.91406s-.04688-.21484-.10547-.30469c-.14111-.21875-.46973-.32812-.98633-.32812-.79785,0-1.41406,.25-1.84863,.75-.17578,.20312-.32471,.30469-.4458,.30469-.08984,0-.16846-.03125-.23486-.09375s-.09961-.13477-.09961-.2168c0-.24609,.29102-.5,.87305-.76172,.55469-.25,1.27148-.375,2.15039-.375,1.44531,0,2.46484,.21875,3.05859,.65625,.25781,.19141,.42578,.40625,.50391,.64453s.11719,.6582,.11719,1.25977v2.32617c-.01562,.42969-.00293,.75293,.03809,.96973s.13379,.4502,.27832,.7002h-3.28125v-.61523c-.35938,.24609-.71582,.43164-1.06934,.55664s-.70215,.1875-1.0459,.1875c-.58203,0-1.09961-.16992-1.55273-.50977-.58984-.44531-.88477-1.02344-.88477-1.73438,0-.62891,.23877-1.13672,.71582-1.52344,.55518-.45703,1.24365-.68555,2.06494-.68555,.33643,0,.63379,.03027,.89209,.09082,.25781,.06055,.55322,.1709,.88574,.33105Zm0,.42188c-.49219-.24609-.87305-.36914-1.14258-.36914-.22656,0-.375,.08984-.44531,.26953-.03906,.09766-.05859,.38086-.05859,.84961v1.40039c.00391,.30859,.01367,.49609,.0293,.5625,.03906,.17969,.17188,.26953,.39844,.26953,.17969,0,.37988-.05371,.60059-.16113s.42285-.24902,.60645-.4248l.01172-2.39648Z"/><path class="e" d="M86.18662,103.77588v3.91406l-.00586,.375c0,.24219,.03027,.40332,.09082,.4834s.18262,.12012,.36621,.12012c.46094,0,.91406-.1416,1.35938-.4248s.80859-.66309,1.08984-1.13965c.08594-.14453,.16992-.2168,.25195-.2168,.05859,0,.1123,.02637,.16113,.0791s.07324,.1084,.07324,.16699c0,.14062-.11328,.33887-.33984,.59473s-.49023,.48535-.79102,.68848c-.61328,.41016-1.26953,.61523-1.96875,.61523-.95703,0-1.74805-.29688-2.37305-.89062-.71094-.66797-1.06641-1.48633-1.06641-2.45508,0-1,.375-1.83203,1.125-2.49609,.62891-.5625,1.4043-.84375,2.32617-.84375,.73438,0,1.37695,.17383,1.92773,.52148,.23438,.14844,.42578,.30762,.57422,.47754s.22266,.31348,.22266,.43066c0,.05859-.02148,.1084-.06445,.14941s-.0957,.06152-.1582,.06152c-.08203,0-.18555-.09375-.31055-.28125-.17969-.26172-.46289-.48926-.84961-.68262s-.75195-.29004-1.0957-.29004c-.23047,0-.37891,.06445-.44531,.19336s-.09961,.41211-.09961,.84961Z"/><path class="e" d="M95.28183,103.72461l.6665,1.1084,.63721,1.0791c.62744,1.04004,1.05518,1.72705,1.2832,2.06104,.22803,.33447,.48242,.64453,.76318,.92969h-3.48535l-1.08154-1.89258c-.39746-.70703-.70117-1.21875-.91162-1.53516v.26953l.00586,1.05469,.01172,1.82812,.00586,.27539h-3.00586l.02832-2.82422,.00684-1.62891-.02832-3.26953-.00684-.27539h3.00586l-.02344,3.84961v.31641c1.08838-.98047,1.83936-1.62305,2.25244-1.92773,.53857-.40625,1.0083-.60938,1.41016-.60938,.30029,0,.45068,.10938,.45068,.32812,0,.07812-.02734,.14355-.08154,.19629-.05469,.05273-.12256,.0791-.20459,.0791-.04639,0-.10107-.00977-.16309-.0293-.10938-.03125-.19287-.04688-.25146-.04688-.16309,0-.33643,.04785-.51953,.14258-.18262,.09521-.4375,.26855-.76465,.521Z"/></g><g><path class="e" d="M52.41025,116.52197l.17188-.03125-.07812,1.25391-.02734,.02734c-.53125-.00781-1.0874-.01172-1.66797-.01172-.53906,0-1.03516,.00391-1.48828,.01172l-.02734-.32031c.24463-.15869,.46484-.30615,.66016-.44141s.36475-.26172,.50781-.37891c.14307-.11475,.26953-.22412,.37891-.32812s.20117-.20752,.27539-.31055,.13086-.20752,.16992-.31445,.05859-.21875,.05859-.33594c0-.23975-.0874-.42969-.26172-.57031s-.38818-.21094-.64062-.21094c-.29688,0-.59619,.08057-.89844,.24219l-.14844-.25781c.48682-.33057,.9751-.49609,1.46484-.49609,.36719,0,.67236,.08936,.91602,.26758s.36523,.42627,.36523,.74414c0,.19775-.04443,.38232-.13281,.55273s-.21729,.33789-.38672,.50195-.37646,.33008-.62109,.49805-.5249,.3457-.83984,.5332l.00391,.01953h1.94141l.30469-.64453Z"/><path class="e" d="M53.03134,114.51025l-.01953-.16406c.52344-.07812,1.04688-.16406,1.57031-.25781l.03516,.03125c-.03125,.45557-.04688,.92578-.04688,1.41016v.95312c0,.34375,.00244,.62109,.00781,.83203,.00244,.07568,.03906,.12256,.10938,.14062l.62109,.16016,.01172,.15625c-.48193-.00781-.8501-.01172-1.10547-.01172s-.62256,.00391-1.10156,.01172l-.01562-.15625,.63672-.16016c.06787-.01807,.10303-.06006,.10547-.125,.00537-.21094,.00781-.44531,.00781-.70312v-.64844c0-.52344-.00537-.98682-.01562-1.39062l-.80078-.07812Z"/><path class="e" d="M59.14853,116.56103c0,.15625,.00049,.29688,.00195,.42188s.00342,.23682,.00586,.33594c.00244,.06006,.03662,.1001,.10156,.12109l.53906,.16406,.00781,.16797c-.37744-.00781-.72119-.01172-1.03125-.01172-.31494,0-.63818,.00391-.96875,.01172l-.01562-.16797,.48047-.14453c.06787-.021,.10303-.06104,.10547-.12109,.00244-.104,.00439-.2207,.00586-.34961s.00195-.27148,.00195-.42773v-3.16797c0-.13281-.00049-.25244-.00195-.35938s-.00342-.20312-.00586-.28906c-.00244-.06787-.03369-.11182-.09375-.13281l-.48438-.15234-.00781-.16797c.33594,.01025,.66357,.01562,.9834,.01562,.21533,0,.42334-.00537,.62402-.01562,.20117-.01025,.38428-.01562,.5498-.01562,.6167,0,1.08301,.12061,1.39941,.36133s.47461,.59961,.47461,1.07617c0,.56006-.18262,.99463-.54883,1.30469-.36523,.31006-.87842,.46484-1.53906,.46484-.18164,0-.37598-.01172-.58398-.03516v1.11328Zm0-1.44141c.18213,.03125,.36182,.04688,.53906,.04688,.4165,0,.73389-.10742,.95117-.32227s.32617-.54346,.32617-.98633c0-.42432-.10352-.74072-.31055-.94922s-.5332-.3125-.97852-.3125c-.17432,0-.3501,.01025-.52734,.03125v2.49219Z"/><path class="e" d="M65.83994,115.88135c0,.59375-.1792,1.07373-.5376,1.43945s-.81396,.54883-1.3667,.54883c-.53955,0-.97559-.17236-1.30811-.51758s-.49854-.79639-.49854-1.35352c0-.57275,.17383-1.04102,.52197-1.4043s.80908-.54492,1.38232-.54492c.54248,0,.979,.16748,1.31006,.50195s.49658,.77783,.49658,1.33008Zm-2.91016,.03516c0,.48682,.09082,.8833,.27246,1.18945s.45117,.45898,.80957,.45898c.33447,0,.58936-.13477,.76465-.4043s.2627-.66846,.2627-1.19727c0-.49756-.09229-.88916-.27637-1.17578s-.45117-.42969-.80176-.42969c-.33203,0-.58691,.12891-.76465,.38672s-.2666,.64844-.2666,1.17188Z"/><path class="e" d="M66.37509,114.32275c.45605-.08594,.87939-.17725,1.26953-.27344l.03516,.02734c-.01562,.33838-.02344,.71094-.02344,1.11719v1.5c0,.3125,.00244,.52881,.00781,.64844,.00537,.07031,.0376,.11572,.09766,.13672l.45312,.13281,.00781,.16016c-.35938-.00781-.66748-.01172-.92383-.01172s-.56055,.00391-.91211,.01172l-.01562-.16016,.45312-.13281c.06006-.021,.09229-.06104,.09766-.12109,.00537-.10156,.00781-.27197,.00781-.51172v-1.30469c0-.34131-.00537-.65625-.01562-.94531l-.51953-.14062-.01953-.13281Zm1.32031-1.65625c0,.13818-.04297,.25049-.12891,.33789s-.19678,.13086-.33203,.13086c-.13037,0-.23633-.04053-.31836-.12109s-.12305-.1875-.12305-.32031c0-.14062,.04297-.25195,.12891-.33398s.19922-.12305,.33984-.12305c.12744,0,.23193,.03711,.3125,.11133s.12109,.18018,.12109,.31836Z"/><path class="e" d="M68.64072,114.32275c.4375-.0835,.85059-.17432,1.23926-.27344l.03906,.02734v.45312c.45361-.32031,.87598-.48047,1.26709-.48047,.37012,0,.66016,.10352,.87012,.31055s.31494,.50049,.31494,.88086v1.37891c0,.32568,.00244,.56641,.00781,.72266,.00244,.07031,.03662,.11572,.10156,.13672l.43359,.13281,.00781,.16016c-.34375-.00781-.64404-.01172-.90039-.01172s-.54102,.00391-.85352,.01172l-.01562-.16016,.39062-.11328c.06006-.021,.09229-.06104,.09766-.12109,.00244-.03662,.00391-.11865,.00391-.24609v-1.70312c0-.32031-.07666-.55029-.22998-.68945s-.37939-.20898-.67822-.20898c-.26221,0-.53369,.07568-.81445,.22656v1.70703c0,.32568,.00244,.62354,.00781,.89453,.00244,.07031,.03271,.11475,.08984,.13281l.40625,.12109,.00781,.16016c-.32275-.00781-.61279-.01172-.86914-.01172s-.55908,.00391-.9082,.01172l-.01562-.16016,.46094-.13281c.05713-.02344,.0874-.06396,.08984-.12109,.00244-.1665,.00391-.32666,.00391-.48047v-1.33203c0-.34131-.00537-.65771-.01562-.94922l-.51953-.14062-.01953-.13281Z"/><path class="e" d="M74.48447,114.56494c-.01562,.88037-.02344,1.58984-.02344,2.12891,0,.271,.04053,.45752,.12109,.56055s.23438,.1543,.46094,.1543c.17969,0,.41406-.02344,.70312-.07031l.02344,.17578c-.45068,.22656-.85303,.33984-1.20703,.33984-.28857,0-.50342-.07617-.64404-.22852-.14111-.15234-.21143-.38232-.21143-.68945,0-.50537,.00928-1.30322,.02734-2.39453l-.53906-.13281-.02344-.16016,.60254-.05078,.27539-.94531c.14893-.03906,.28467-.07666,.40723-.11328l.03906,.02734c-.00781,.31494-.01172,.60938-.01172,.88281v.14453h1.17578v.37109h-1.17578Z"/><path class="e" d="M78.12509,114.44385c-.15088-.0415-.31494-.0625-.49219-.0625-.24463,0-.44189,.04736-.5918,.14258s-.22461,.22461-.22461,.38867c0,.15869,.04883,.28369,.14648,.375s.2793,.18115,.54492,.26953l.32031,.10938c.35938,.12256,.62305,.26221,.79102,.41992s.25195,.36377,.25195,.61914c0,.36182-.14062,.64648-.42188,.85352s-.63672,.31055-1.06641,.31055c-.396,0-.80078-.08057-1.21484-.24219,.08838-.33838,.16016-.66943,.21484-.99219l.15234-.02344,.28125,.83984c.14844,.05713,.3374,.08594,.56641,.08594,.24219,0,.43555-.04932,.58008-.14844s.2168-.23828,.2168-.41797c0-.1665-.04883-.29834-.14648-.39453s-.25342-.17969-.4668-.25l-.40625-.13672c-.35156-.11719-.59424-.2583-.72852-.42383s-.20117-.37061-.20117-.61523c0-.34131,.12939-.60986,.38867-.80664s.60107-.29492,1.02539-.29492c.396,0,.75537,.05713,1.07812,.17188-.07275,.29688-.13916,.61084-.19922,.94141l-.14844,.02734-.25-.74609Z"/></g></g></g></svg>