<?xml version="1.0" encoding="UTF-8"?><svg id="b" xmlns="http://www.w3.org/2000/svg" viewBox="0 0 81 80.97823" fill="#303030"><g id="c"><path d="M80.95838,49.0713c.01081-.23557,.03871-.46964,.03942-.70607,.00008-.01301,.00219-.02594,.00219-.03895,.00086-1.22195-.12875-2.45487-.39708-3.69954-.54856-2.54093-1.74535-4.92136-3.59101-7.14192L48.88563,3.90181c-1.44443-1.73846-3.20358-2.89513-5.27618-3.47065-1.03662-.28744-2.07151-.43117-3.10468-.43117l-.00455,.00031-.00227-.00016V.00047c-1.0309,.00063-2.06007,.14388-3.08752,.4307-1.06154,.29653-2.04165,.75364-2.94669,1.35893-.69651,.4658-1.33731,1.04171-1.94111,1.69042-.13424,.14419-.27882,.26801-.40844,.42129l-4.58383,5.48095-1.65398,1.97763-4.9617,5.93281-1.6539,1.97763-4.96178,5.93281-1.6539,1.97763-4.9617,5.93289-1.65398,1.97755-2.00137,2.39312c-1.06906,1.26772-1.89707,2.59358-2.53449,3.9656-.40484,.87142-.72363,1.76361-.95426,2.6772-.04232,.16762-.10595,.33007-.14239,.49912-.54856,2.54153-.5285,5.03543,.06018,7.48294,.58805,2.44751,1.64505,4.67434,3.16972,6.68049,1.52468,2.00615,3.44369,3.61108,5.75766,4.81477,2.31335,1.20369,4.91508,1.80554,7.80394,1.80554,1.42821,0,2.80532-.17217,4.13738-.49637,.92933-.22616,1.83594-.52897,2.71849-.91296,.83788-.36448,1.65696-.79227,2.45268-1.29898,1.47131-.93701,2.73863-2.04972,3.82117-3.32175,.56-.65803,1.06021-1.36763,1.51613-2.11539,.36095-.59189,.70646-1.19711,1.00214-1.84519l1.88578-4.05242v9.14806c0,1.0131-.12358,1.9795-.36941,2.89951-.24748,.92628-.61885,1.80554-1.11514,2.63746-.88788,1.48784-2.05983,2.69655-3.4853,3.65676-.16378,.11034-.31597,.23212-.48688,.33548-.61062,.36926-1.25541,.65192-1.91666,.89242-1.13512,.41291-2.33607,.65835-3.62032,.69244h-.24074c-1.28394,0-2.38732,.45452-3.31015,1.36418-.92283,.90904-1.38425,2.00615-1.38425,3.29009s.46142,2.38732,1.38425,3.31015c.92283,.92283,2.02621,1.38425,3.31015,1.38425H57.55222c1.28394,0,2.38732-.46142,3.31015-1.38425s1.38425-2.02621,1.38425-3.31015l-.00078-.00854c-.00219-1.28002-.46275-2.37463-1.38346-3.28155-.92283-.90967-2.02621-1.36418-3.31015-1.36418h-.24074c-.0815-.00219-.15798-.01708-.23886-.02077-1.93719-.08824-3.70637-.60122-5.29813-1.56409-1.65884-1.00308-2.9829-2.33341-3.97218-3.99225-.92996-1.55775-1.40572-3.28743-1.46206-5.17603-.0036-.12178-.02249-.23776-.02249-.36094v-9.13914l1.88163,4.0435c1.39052,3.04935,3.49698,5.4768,6.31938,7.28234,2.82178,1.80554,5.93132,2.70831,9.32861,2.70831l.00157-.00008,.00259,.00008c.50264,0,.98513-.04208,1.47037-.07852l.0036-.00039c.49409-.0373,.97753-.09709,1.45352-.17225,.09709-.01512,.19341-.03213,.2898-.0489,.45985-.08056,.9146-.17201,1.35729-.28846l.01426-.00306c.02265-.00596,.04396-.01497,.06661-.021,.52724-.14168,1.04814-.29677,1.55101-.48955,.54738-.20328,1.08121-.43485,1.59748-.70341,.0366-.01904,.06724-.04412,.1036-.0634,.64236-.33971,1.24758-.71743,1.82858-1.11976,.07155-.05039,.13886-.10485,.20947-.15618,.56862-.40672,1.10503-.84619,1.61315-1.31442,.00987-.00909,.02147-.01646,.03135-.02555,.02382-.02202,.04537-.04631,.06904-.06849,.48438-.45374,.94109-.93568,1.36959-1.44623,.1036-.12249,.21433-.23776,.31425-.36401,.07006-.08847,.15015-.16668,.21864-.25672,1.52468-2.00615,2.57415-4.23298,3.14966-6.68049,.03903-.16606,.05454-.33407,.0884-.5006,.01418-.06975,.01959-.1402,.03299-.21002,.08628-.45428,.16676-.90912,.21472-1.36661,.03589-.31903,.04302-.64048,.05948-.96115Zm-43.66832,11.44418v-8.68924l3.20789,3.20789v10.89459l-3.36642-3.36642c.09733-.66806,.15853-1.34796,.15853-2.04681Zm.81077-57.61094c.79784-.22279,1.60437-.33556,2.39712-.33619V7.82431l-4.1601-4.1601c.55373-.31824,1.13324-.58374,1.76299-.75967Zm-4.02626,2.6558c.08307-.09819,.17421-.17546,.25923-.26864l6.16414,6.16414v10.89451l-11.14465-11.14465,4.72128-5.64536Zm-6.37526,7.62299l12.79863,12.79863v10.89451L22.73762,19.11613l4.9617-5.93281Zm-6.6156,7.91044l19.41424,19.41424v10.89459L16.12193,27.02657l4.96178-5.93281Zm-3.89531,41.74884c-2.45903,0-4.68586-.50992-6.6189-1.51574-1.96384-1.02149-3.61178-2.39775-4.89831-4.09044-1.30157-1.71268-2.21578-3.63937-2.71748-5.72725-.40695-1.69199-.47152-3.43609-.23024-5.19735l16.40673,16.40673c-.63311,.07954-1.27861,.12405-1.94182,.12405Zm7.92932-2.30645c-.98693,.62841-2.00129,1.11937-3.04927,1.48918L3.44414,43.40101c.56157-1.4793,1.40744-2.90955,2.55369-4.2688l1.85459-2.2175,20.63838,20.6383c-.94234,1.14249-2.05019,2.14063-3.37308,2.98313Zm7.2763-10.25215l-1.89386,4.07006c-.16472,.36103-.36722,.68413-.55396,1.0229L9.50633,34.93708l4.9617-5.93289,19.85246,19.85246c-.82197,.1322-1.5583,.63617-1.92646,1.42735Zm-8.62544,28.12635h-.28086c-.60443,0-1.05135-.18902-1.49443-.6321s-.6321-.89-.6321-1.49443c0-.59683,.18494-1.03372,.61901-1.46128,.44449-.43814,.89532-.62512,1.50751-.62512h.24074l.0681-.00086c1.97183-.05235,3.81773-.49707,5.51966-1.29201l5.50579,5.50579h-11.05344Zm14.68489,0l-6.85854-6.85854c1.55289-1.1265,2.8543-2.51858,3.8479-4.18369,.37043-.62089,.66681-1.27179,.92636-1.93672l4.12876,4.12876v8.85019h-2.04447Z"/></g></svg>