<?xml version="1.0" encoding="UTF-8"?><svg id="a" xmlns="http://www.w3.org/2000/svg" xmlns:xlink="http://www.w3.org/1999/xlink" viewBox="0 0 80 110"><defs><style>.c{fill:#fff;}.d{clip-path:url(#b);}.e{fill:none;}</style><clipPath id="b"><rect class="e" x="10" y="10" width="60" height="90" rx="4" ry="4"/></clipPath></defs><g><rect class="c" x=".5" y=".5" width="79" height="109" rx="7.5" ry="7.5"/><path d="M72,1c3.8598,0,7,3.1402,7,7V102c0,3.8598-3.1402,7-7,7H8c-3.8598,0-7-3.1402-7-7V8C1,4.1402,4.1402,1,8,1H72m0-1H8C3.58173,0,0,3.58173,0,8V102c0,4.41827,3.58173,8,8,8H72c4.41827,0,8-3.58173,8-8V8c0-4.41827-3.58173-8-8-8h0Z"/></g><g><path d="M13.1626,22.83594c-.13037-.12988-.19531-.28906-.19531-.47656s.06494-.34863,.19531-.48438c.12988-.13477,.28906-.20312,.47656-.20312h1.84375v-7.64062c0-.07227-.01855-.12207-.05469-.14844-.03662-.02539-.09131-.01758-.16406,.02344l-1.35938,.65625c-.13574,.0625-.25537,.09375-.35938,.09375-.19824,0-.3623-.06445-.49219-.19531-.13037-.12988-.19531-.29395-.19531-.49219,0-.30176,.14062-.52051,.42188-.65625l2.125-1.10938c.11426-.07227,.26025-.10938,.4375-.10938h.32812c.20801,0,.3877,.07617,.53906,.22656,.15088,.15137,.22656,.33105,.22656,.53906v8.8125h1.53125c.1875,0,.34863,.06836,.48438,.20312,.13525,.13574,.20312,.29688,.20312,.48438s-.06787,.34668-.20312,.47656c-.13574,.13086-.29688,.19531-.48438,.19531h-4.82812c-.1875,0-.34668-.06445-.47656-.19531Z"/><path d="M20.84375,21.6875c-.73438-1-1.10156-2.375-1.10156-4.125s.36719-3.125,1.10156-4.125,1.78369-1.5,3.14844-1.5c1.34375,0,2.3877,.49512,3.13281,1.48438,.74463,.99023,1.11719,2.37012,1.11719,4.14062,0,1.77148-.37256,3.15137-1.11719,4.14062-.74512,.99023-1.78906,1.48438-3.13281,1.48438-1.36475,0-2.41406-.5-3.14844-1.5Zm5.21094-.96094c.48926-.74414,.73438-1.79883,.73438-3.16406,0-1.35352-.24512-2.40332-.73438-3.14844-.48975-.74414-1.17725-1.11719-2.0625-1.11719-.88574,0-1.57324,.37305-2.0625,1.11719-.48975,.74512-.73438,1.79492-.73438,3.14844,0,1.36523,.24463,2.41992,.73438,3.16406,.48926,.74512,1.17676,1.11719,2.0625,1.11719,.88525,0,1.57275-.37207,2.0625-1.11719Z"/><path d="M19.20068,25.20117c.17969-.21875,.4082-.32812,.68555-.32812s.50586,.10938,.68555,.32812l4.16016,4.97461c.14844,.17578,.22266,.37988,.22266,.6123s-.07422,.43652-.22266,.6123l-4.16016,4.97461c-.17969,.21484-.4082,.32227-.68555,.32227s-.50586-.10742-.68555-.32227l-4.16016-4.97461c-.14844-.17969-.22266-.38477-.22266-.61523s.07422-.43359,.22266-.60938l4.16016-4.97461Z"/></g><g class="d"><path d="M77.11621,65.21875l-25.85553-26.53125c-1.11694-1.1665-2.53717-1.75-4.26068-1.75-1.72406,0-3.14429,.5835-4.26068,1.75l-4.65948,4.78125-1.94904,2-5.84723,6-1.94904,2-5.84717,6-1.9491,2-3.65448,3.75c-.66321,.67365-1.07831,1.42578-1.26477,2.25-.073,.32281-.11902,.65411-.11902,1,0,.34491,.04553,.67645,.1181,1,.1861,.82977,.60168,1.59198,1.26569,2.28125l3.62402,3.71875,1.9491,2,5.84717,6,1.94904,2,5.84723,6,1.94904,2,4.68994,4.8125c1.11639,1.14551,2.53662,1.71875,4.26068,1.71875,1.72351,0,3.14374-.57324,4.26068-1.71875l25.85553-26.53125c.92236-.9375,1.38379-2.02588,1.38379-3.26562,0-1.23926-.46143-2.32812-1.38379-3.26562Zm-32.93201-25.14844c.73969-.77289,1.6344-1.13281,2.8158-1.13281v4.53125h-6.12769l3.31189-3.39844Zm-5.26093,5.39844h8.07672v6h-13.92389l5.84717-6Zm-7.7962,8h15.87292v6H25.27991l5.84717-6Zm-12.81091,13.14581l5.01471-5.14581h23.66913v6H17.71185c.13422-.29626,.33215-.5777,.60431-.85419Zm.008,3.74786c-.27911-.28979-.48346-.58417-.61926-.89368h29.2951v6H23.30042l-4.97626-5.10632Zm6.92535,7.10632h21.75049v6h-15.90332l-5.84717-6Zm7.79626,8h13.95422v6h-8.10706l-5.84717-6Zm11.12585,11.41663l-3.32959-3.41663h6.15796v4.53125c-1.18854,0-2.08728-.35419-2.82837-1.11462Z"/></g></svg>