<?xml version="1.0" encoding="UTF-8"?><svg id="a" xmlns="http://www.w3.org/2000/svg" xmlns:xlink="http://www.w3.org/1999/xlink" viewBox="0 0 80 110"><defs><style>.c{fill:#fff;}.d{clip-path:url(#b);}.e{fill:none;}</style><clipPath id="b"><rect class="e" x="10" y="10" width="60" height="90" rx="4" ry="4"/></clipPath></defs><g><rect class="c" x=".5" y=".5" width="79" height="109" rx="7.5" ry="7.5"/><path d="M72,1c3.8598,0,7,3.1402,7,7V102c0,3.8598-3.1402,7-7,7H8c-3.8598,0-7-3.1402-7-7V8C1,4.1402,4.1402,1,8,1H72m0-1H8C3.58173,0,0,3.58173,0,8V102c0,4.41827,3.58173,8,8,8H72c4.41827,0,8-3.58173,8-8V8c0-4.41827-3.58173-8-8-8h0Z"/></g><g><path d="M16.21436,22.80469c-.15625-.15039-.23438-.35156-.23438-.60156,0-.55176,.16113-1.05664,.48438-1.51562,.2915-.42676,.64551-.80957,1.0625-1.14844,.4165-.33789,1.0415-.77344,1.875-1.30469,.604-.38477,1.10938-.72852,1.51562-1.03125,.875-.65625,1.3125-1.3125,1.3125-1.96875,0-.625-.20605-1.10156-.61719-1.42969-.41162-.32812-1.02344-.49219-1.83594-.49219-.9375,0-1.82812,.1875-2.67188,.5625-.125,.05273-.22412,.07812-.29688,.07812-.16699,0-.31006-.05957-.42969-.17969-.12012-.11914-.17969-.26758-.17969-.44531,0-.25977,.11963-.45801,.35938-.59375,1.0625-.53125,2.21875-.79688,3.46875-.79688,.6875,0,1.29688,.13086,1.82812,.39062,.5625,.27148,1,.64844,1.3125,1.13281s.46875,1.03906,.46875,1.66406c0,.63574-.17725,1.20898-.53125,1.71875-.3335,.49023-.73193,.92773-1.19531,1.3125-.46387,.38574-1.14844,.87012-2.05469,1.45312-.79199,.54199-1.35693,.95117-1.69531,1.22656-.33887,.27637-.57568,.55469-.71094,.83594h5.40625c.1875,0,.34863,.06836,.48438,.20312,.13525,.13574,.20312,.29688,.20312,.48438s-.06787,.34668-.20312,.47656c-.13574,.13086-.29688,.19531-.48438,.19531h-6.03125c-.25,0-.45312-.0752-.60938-.22656Z"/><path d="M19.20068,25.20117c.17969-.21875,.4082-.32812,.68555-.32812s.50586,.10938,.68555,.32812l4.16016,4.97461c.14844,.17578,.22266,.37988,.22266,.6123s-.07422,.43652-.22266,.6123l-4.16016,4.97461c-.17969,.21484-.4082,.32227-.68555,.32227s-.50586-.10742-.68555-.32227l-4.16016-4.97461c-.14844-.17969-.22266-.38477-.22266-.61523s.07422-.43359,.22266-.60938l4.16016-4.97461Z"/></g><g class="d"><path d="M77.11621,65.21875l-25.85553-26.53125c-1.11694-1.1665-2.53717-1.75-4.26068-1.75-1.72406,0-3.14429,.5835-4.26068,1.75l-4.65948,4.78125-1.94904,2-5.84723,6-1.94904,2-5.84717,6-1.9491,2-3.65448,3.75c-.66321,.67365-1.07831,1.42578-1.26477,2.25-.073,.32281-.11902,.65411-.11902,1,0,.34491,.04553,.67645,.1181,1,.1861,.82977,.60168,1.59198,1.26569,2.28125l3.62402,3.71875,1.9491,2,5.84717,6,1.94904,2,5.84723,6,1.94904,2,4.68994,4.8125c1.11639,1.14551,2.53662,1.71875,4.26068,1.71875,1.72351,0,3.14374-.57324,4.26068-1.71875l25.85553-26.53125c.92236-.9375,1.38379-2.02588,1.38379-3.26562,0-1.23926-.46143-2.32812-1.38379-3.26562Zm-32.93201-25.14844c.73969-.77289,1.6344-1.13281,2.8158-1.13281v4.53125h-6.12769l3.31189-3.39844Zm-5.26093,5.39844h8.07672v6h-13.92389l5.84717-6Zm-7.7962,8h15.87292v6H25.27991l5.84717-6Zm-12.81091,13.14581l5.01471-5.14581h23.66913v6H17.71185c.13422-.29626,.33215-.5777,.60431-.85419Zm.008,3.74786c-.27911-.28979-.48346-.58417-.61926-.89368h29.2951v6H23.30042l-4.97626-5.10632Zm6.92535,7.10632h21.75049v6h-15.90332l-5.84717-6Zm7.79626,8h13.95422v6h-8.10706l-5.84717-6Zm11.12585,11.41663l-3.32959-3.41663h6.15796v4.53125c-1.18854,0-2.08728-.35419-2.82837-1.11462Z"/></g></svg>