<?xml version="1.0" encoding="UTF-8"?><svg id="a" xmlns="http://www.w3.org/2000/svg" xmlns:xlink="http://www.w3.org/1999/xlink" viewBox="0 0 80 110"><defs><style>.c{fill:#fff;}.d{clip-path:url(#b);}.e{fill:none;}</style><clipPath id="b"><rect class="e" x="10" y="10" width="60" height="90" rx="4" ry="4"/></clipPath></defs><g><rect class="c" x=".5" y=".5" width="79" height="109" rx="7.5" ry="7.5"/><path d="M72,1c3.8598,0,7,3.1402,7,7V102c0,3.8598-3.1402,7-7,7H8c-3.8598,0-7-3.1402-7-7V8C1,4.1402,4.1402,1,8,1H72m0-1H8C3.58173,0,0,3.58173,0,8V102c0,4.41827,3.58173,8,8,8H72c4.41827,0,8-3.58173,8-8V8c0-4.41827-3.58173-8-8-8h0Z"/></g><g><path d="M17.49561,22.73438c-.60449-.29102-1.05469-.66602-1.35156-1.125-.29688-.45801-.44531-.95312-.44531-1.48438,0-1.44727,.76562-2.43164,2.29688-2.95312-.54199-.19727-.97412-.5-1.29688-.90625-.32324-.40625-.48438-.89551-.48438-1.46875,0-.46875,.125-.91113,.375-1.32812,.25-.46875,.65625-.84082,1.21875-1.11719,.5625-.27539,1.25488-.41406,2.07812-.41406,.86426,0,1.56738,.14062,2.10938,.42188,.52051,.27148,.91113,.625,1.17188,1.0625,.26025,.4375,.39062,.89648,.39062,1.375,0,.57324-.16162,1.0625-.48438,1.46875-.32324,.40625-.75537,.70898-1.29688,.90625,1.53125,.52148,2.29688,1.50586,2.29688,2.95312,0,.52148-.14062,1.01074-.42188,1.46875-.29199,.49023-.75781,.87793-1.39844,1.16406s-1.42969,.42969-2.36719,.42969c-.96875,0-1.76562-.15137-2.39062-.45312Zm3.98438-1.15625c.375-.19727,.65869-.44238,.85156-.73438,.19238-.29102,.28906-.58301,.28906-.875,0-.64551-.25781-1.15625-.77344-1.53125s-1.16943-.5625-1.96094-.5625c-.79199,0-1.44531,.1875-1.96094,.5625s-.77344,.88574-.77344,1.53125c0,.26074,.09375,.54199,.28125,.84375,.19775,.32324,.50244,.58594,.91406,.78906,.41113,.20312,.92432,.30469,1.53906,.30469,.64551,0,1.17676-.10938,1.59375-.32812Zm.0625-5.49219c.375-.31738,.5625-.71582,.5625-1.19531,0-.52051-.19824-.92969-.59375-1.22656-.396-.29688-.9375-.44531-1.625-.44531s-1.22949,.14844-1.625,.44531c-.396,.29688-.59375,.70605-.59375,1.22656,0,.47949,.1875,.87793,.5625,1.19531,.375,.31836,.92676,.47656,1.65625,.47656,.729,0,1.28125-.1582,1.65625-.47656Z"/><path d="M19.20068,25.20117c.17969-.21875,.4082-.32812,.68555-.32812s.50586,.10938,.68555,.32812l4.16016,4.97461c.14844,.17578,.22266,.37988,.22266,.6123s-.07422,.43652-.22266,.6123l-4.16016,4.97461c-.17969,.21484-.4082,.32227-.68555,.32227s-.50586-.10742-.68555-.32227l-4.16016-4.97461c-.14844-.17969-.22266-.38477-.22266-.61523s.07422-.43359,.22266-.60938l4.16016-4.97461Z"/></g><g class="d"><path d="M77.11621,65.21875l-25.85553-26.53125c-1.11694-1.1665-2.53717-1.75-4.26068-1.75-1.72406,0-3.14429,.5835-4.26068,1.75l-4.65948,4.78125-1.94904,2-5.84723,6-1.94904,2-5.84717,6-1.9491,2-3.65448,3.75c-.66321,.67365-1.07831,1.42578-1.26477,2.25-.073,.32281-.11902,.65411-.11902,1,0,.34491,.04553,.67645,.1181,1,.1861,.82977,.60168,1.59198,1.26569,2.28125l3.62402,3.71875,1.9491,2,5.84717,6,1.94904,2,5.84723,6,1.94904,2,4.68994,4.8125c1.11639,1.14551,2.53662,1.71875,4.26068,1.71875,1.72351,0,3.14374-.57324,4.26068-1.71875l25.85553-26.53125c.92236-.9375,1.38379-2.02588,1.38379-3.26562,0-1.23926-.46143-2.32812-1.38379-3.26562Zm-32.93201-25.14844c.73969-.77289,1.6344-1.13281,2.8158-1.13281v4.53125h-6.12769l3.31189-3.39844Zm-5.26093,5.39844h8.07672v6h-13.92389l5.84717-6Zm-7.7962,8h15.87292v6H25.27991l5.84717-6Zm-12.81091,13.14581l5.01471-5.14581h23.66913v6H17.71185c.13422-.29626,.33215-.5777,.60431-.85419Zm.008,3.74786c-.27911-.28979-.48346-.58417-.61926-.89368h29.2951v6H23.30042l-4.97626-5.10632Zm6.92535,7.10632h21.75049v6h-15.90332l-5.84717-6Zm7.79626,8h13.95422v6h-8.10706l-5.84717-6Zm11.12585,11.41663l-3.32959-3.41663h6.15796v4.53125c-1.18854,0-2.08728-.35419-2.82837-1.11462Z"/></g></svg>