<?xml version="1.0" encoding="UTF-8"?><svg id="a" xmlns="http://www.w3.org/2000/svg" xmlns:xlink="http://www.w3.org/1999/xlink" viewBox="0 0 80 110"><defs><style>.c{fill:#fff;}.d{clip-path:url(#b);}.e{fill:none;}</style><clipPath id="b"><rect class="e" x="10" y="10" width="60" height="90" rx="4" ry="4"/></clipPath></defs><g><rect class="c" x=".5" y=".5" width="79" height="109" rx="7.5" ry="7.5"/><path d="M72,1c3.8598,0,7,3.1402,7,7V102c0,3.8598-3.1402,7-7,7H8c-3.8598,0-7-3.1402-7-7V8C1,4.1402,4.1402,1,8,1H72m0-1H8C3.58173,0,0,3.58173,0,8V102c0,4.41827,3.58173,8,8,8H72c4.41827,0,8-3.58173,8-8V8c0-4.41827-3.58173-8-8-8h0Z"/></g><g><path d="M17.49561,22.73438c-.60449-.29102-1.05469-.66602-1.35156-1.125-.29688-.45801-.44531-.95312-.44531-1.48438,0-1.44727,.76562-2.43164,2.29688-2.95312-.54199-.19727-.97412-.5-1.29688-.90625-.32324-.40625-.48438-.89551-.48438-1.46875,0-.46875,.125-.91113,.375-1.32812,.25-.46875,.65625-.84082,1.21875-1.11719,.5625-.27539,1.25488-.41406,2.07812-.41406,.86426,0,1.56738,.14062,2.10938,.42188,.52051,.27148,.91113,.625,1.17188,1.0625,.26025,.4375,.39062,.89648,.39062,1.375,0,.57324-.16162,1.0625-.48438,1.46875-.32324,.40625-.75537,.70898-1.29688,.90625,1.53125,.52148,2.29688,1.50586,2.29688,2.95312,0,.52148-.14062,1.01074-.42188,1.46875-.29199,.49023-.75781,.87793-1.39844,1.16406s-1.42969,.42969-2.36719,.42969c-.96875,0-1.76562-.15137-2.39062-.45312Zm3.98438-1.15625c.375-.19727,.65869-.44238,.85156-.73438,.19238-.29102,.28906-.58301,.28906-.875,0-.64551-.25781-1.15625-.77344-1.53125s-1.16943-.5625-1.96094-.5625c-.79199,0-1.44531,.1875-1.96094,.5625s-.77344,.88574-.77344,1.53125c0,.26074,.09375,.54199,.28125,.84375,.19775,.32324,.50244,.58594,.91406,.78906,.41113,.20312,.92432,.30469,1.53906,.30469,.64551,0,1.17676-.10938,1.59375-.32812Zm.0625-5.49219c.375-.31738,.5625-.71582,.5625-1.19531,0-.52051-.19824-.92969-.59375-1.22656-.396-.29688-.9375-.44531-1.625-.44531s-1.22949,.14844-1.625,.44531c-.396,.29688-.59375,.70605-.59375,1.22656,0,.47949,.1875,.87793,.5625,1.19531,.375,.31836,.92676,.47656,1.65625,.47656,.729,0,1.28125-.1582,1.65625-.47656Z"/><path d="M25.21826,30.3457c.26953,.32422,.44434,.67188,.52441,1.04297s.07812,.73535-.00586,1.09277-.2373,.68262-.45996,.97559-.50293,.52734-.84082,.70312-.71777,.26367-1.13965,.26367c-.49609,0-.9502-.13184-1.3623-.39551s-.71973-.61816-.92285-1.06348l-.27539-.5918v1.33594c0,.29688,.07227,.56641,.2168,.80859s.33789,.43652,.58008,.58301,.51172,.22363,.80859,.23145h.03516c.1875,0,.34863,.06641,.4834,.19922s.20215,.29297,.20215,.48047-.06738,.34863-.20215,.4834-.2959,.20215-.4834,.20215h-4.97461c-.1875,0-.34863-.06738-.4834-.20215s-.20215-.2959-.20215-.4834,.06738-.34766,.20215-.48047,.2959-.19922,.4834-.19922h.03516c.29688-.00781,.56641-.08496,.80859-.23145s.43555-.34082,.58008-.58301,.2168-.51172,.2168-.80859v-1.33594l-.27539,.5918c-.20312,.44531-.51172,.7998-.92578,1.06348s-.86719,.39551-1.35938,.39551c-.42188,0-.80176-.08789-1.13965-.26367s-.61816-.41016-.84082-.70312-.37695-.61816-.46289-.97559-.08887-.72168-.00879-1.09277,.25684-.71875,.53027-1.04297l4.10156-4.9043c.21484-.25391,.47266-.42285,.77344-.50684s.60254-.08398,.90527,0,.55957,.25293,.77051,.50684l4.10742,4.9043Z"/></g><g class="d"><path d="M78.51116,75.14917c.00842-.18347,.03015-.36578,.0307-.54993l.00171-.03033c.00067-.95172-.10028-1.91199-.30927-2.88141-.42725-1.979-1.35938-3.83301-2.79688-5.5625l-21.90625-26.15625c-1.125-1.354-2.49512-2.25488-4.10938-2.70312-.80737-.22388-1.6134-.33582-2.41809-.33582l-.00354,.00024-.00177-.00012v.00024c-.80292,.00049-1.60449,.11206-2.40472,.33545-.82678,.23096-1.59015,.58698-2.29504,1.05841-.54248,.36279-1.04156,.81134-1.51184,1.31659-.10455,.1123-.21716,.20874-.31812,.32812l-3.57013,4.26886-1.28821,1.54028-3.86444,4.62079-1.28815,1.54028-3.8645,4.62079-1.28815,1.54028-3.86444,4.62085-1.28821,1.54022-1.55878,1.86389c-.83264,.98737-1.47754,2.02002-1.974,3.08862-.31531,.67871-.5636,1.3736-.74323,2.08514-.03296,.13055-.08252,.25708-.1109,.38873-.42725,1.97949-.41162,3.92188,.04688,5.82812,.45801,1.90625,1.28125,3.64062,2.46875,5.20312s2.68213,2.8125,4.48438,3.75c1.80176,.9375,3.82812,1.40625,6.07812,1.40625,1.11237,0,2.18494-.13409,3.22241-.3866,.72382-.17615,1.42993-.41199,2.11731-.71106,.65259-.28387,1.29053-.61707,1.91028-1.01172,1.14594-.7298,2.133-1.59644,2.97614-2.58716,.43616-.51251,.82574-1.06519,1.18085-1.64758,.28113-.461,.55023-.93237,.78052-1.43713l1.46875-3.15625v7.125c0,.78906-.09625,1.54175-.28772,2.2583-.19275,.72144-.48199,1.40625-.86853,2.0542-.69153,1.15881-1.60431,2.10022-2.71454,2.84808-.12756,.08594-.24609,.18079-.37921,.26129-.47559,.2876-.97778,.50775-1.4928,.69507-.88409,.32159-1.81946,.51276-2.8197,.53931h-.1875c-1,0-1.85938,.354-2.57812,1.0625-.71875,.70801-1.07812,1.5625-1.07812,2.5625s.35938,1.85938,1.07812,2.57812,1.57812,1.07812,2.57812,1.07812h26.53125c1,0,1.85938-.35938,2.57812-1.07812s1.07812-1.57812,1.07812-2.57812l-.00061-.00665c-.00171-.99695-.36041-1.84949-1.07751-2.55585-.71875-.7085-1.57812-1.0625-2.57812-1.0625h-.1875c-.06348-.00171-.12305-.01331-.18604-.01617-1.50879-.06873-2.88672-.46826-4.12646-1.2182-1.29199-.78125-2.32324-1.81738-3.09375-3.10938-.7243-1.21326-1.09485-2.56042-1.13873-4.03137-.00281-.09485-.01752-.18518-.01752-.28113v-7.11804l1.46552,3.14929c1.08301,2.375,2.72363,4.26562,4.92188,5.67188,2.19775,1.40625,4.61963,2.10938,7.26562,2.10938l.00122-.00006,.00201,.00006c.39148,0,.76727-.03278,1.1452-.06116l.00281-.00031c.38483-.02905,.76135-.07562,1.13208-.13416,.07562-.01178,.15063-.02502,.22571-.03809,.35815-.06274,.71234-.13397,1.05713-.22467l.01111-.00238c.01764-.00464,.03424-.01166,.05188-.01636,.41064-.11035,.81635-.23114,1.20801-.38129,.42633-.15833,.8421-.33868,1.2442-.54785,.0285-.01483,.05237-.03436,.08069-.04938,.50031-.26459,.97168-.55878,1.42419-.87213,.05573-.03925,.10815-.08167,.16315-.12164,.44287-.31677,.86066-.65906,1.25641-1.02374l.02441-.0199c.01855-.01715,.03534-.03607,.05377-.05334,.37726-.35339,.73297-.72876,1.06671-1.1264,.08069-.0954,.16693-.18518,.24475-.28351,.05457-.06891,.11694-.12982,.17029-.19995,1.1875-1.5625,2.00488-3.29688,2.45312-5.20312,.0304-.12933,.04248-.26019,.06885-.38989,.01105-.05432,.01526-.10919,.0257-.16357,.0672-.35382,.12988-.70807,.16724-1.06439,.02795-.24847,.03351-.49884,.04633-.7486Zm-34.01123,8.91333v-6.76764l2.49847,2.49847v8.48529l-2.62195-2.62195c.07581-.52032,.12347-1.04987,.12347-1.59418Zm.63147-44.87048c.6214-.17352,1.24957-.26135,1.867-.26184v4.09363l-3.24011-3.24011c.43127-.24786,.88263-.45465,1.37311-.59167Zm-3.13586,2.06848c.0647-.07648,.13568-.13666,.2019-.20923l4.80096,4.80096v8.48523l-8.68005-8.68005,3.67719-4.39691Zm-4.96539,5.93719l9.96826,9.96826v8.48523l-13.8327-13.8327,3.86444-4.62079Zm-5.15259,6.16107l15.12085,15.12085v8.48529l-18.98535-18.98535,3.8645-4.62079Zm-3.03387,32.51624c-1.91522,0-3.6496-.39716-5.15515-1.18054-1.52954-.79559-2.81305-1.86749-3.81506-3.18585-1.01373-1.33392-1.72577-2.83453-2.11652-4.46069-.31696-1.31781-.36725-2.67621-.17932-4.04797l12.77844,12.77844c-.4931,.06195-.99585,.09662-1.51239,.09662Zm6.17578-1.79639c-.76868,.48944-1.55872,.87183-2.37494,1.15985l-14.50562-14.50562c.43738-1.15216,1.09619-2.26611,1.98895-3.32477l1.44446-1.72711,16.07428,16.07422c-.73395,.88983-1.5968,1.66724-2.62714,2.32343Zm5.66718-7.98492l-1.47504,3.16998c-.1283,.28119-.28601,.53284-.43146,.79669l-15.91968-15.91968,3.86444-4.62085,15.46216,15.46216c-.6402,.10297-1.21368,.49548-1.50043,1.11169Zm-6.71796,21.90631h-.21875c-.47076,0-.81885-.14722-1.16394-.49231s-.49231-.69318-.49231-1.16394c0-.46484,.14404-.80511,.48212-1.13812,.34619-.34125,.69733-.48688,1.17413-.48688h.1875l.05304-.00067c1.53577-.04077,2.97345-.38715,4.29901-1.00629l4.28821,4.28821h-8.60901Zm11.43738,0l-5.3418-5.3418c1.20947-.87738,2.22308-1.96161,2.99695-3.25848,.28851-.48358,.51935-.99054,.7215-1.50842l3.2157,3.2157v6.89301h-1.59235Z"/></g></svg>