<?xml version="1.0" encoding="UTF-8"?><svg id="a" xmlns="http://www.w3.org/2000/svg" xmlns:xlink="http://www.w3.org/1999/xlink" viewBox="0 0 80 110"><defs><style>.c{fill:#fff;}.d{clip-path:url(#b);}.e{fill:none;}</style><clipPath id="b"><rect class="e" x="10" y="10" width="60" height="90" rx="4" ry="4"/></clipPath></defs><g><rect class="c" x=".5" y=".5" width="79" height="109" rx="7.5" ry="7.5"/><path d="M72,1c3.8598,0,7,3.1402,7,7V102c0,3.8598-3.1402,7-7,7H8c-3.8598,0-7-3.1402-7-7V8C1,4.1402,4.1402,1,8,1H72m0-1H8C3.58173,0,0,3.58173,0,8V102c0,4.41827,3.58173,8,8,8H72c4.41827,0,8-3.58173,8-8V8c0-4.41827-3.58173-8-8-8h0Z"/></g><g><path d="M18.06592,22.89844c-.14062-.14062-.21094-.30957-.21094-.50781,0-.14551,.03125-.27051,.09375-.375l4.17188-8.3125c.02051-.0625,.03125-.09863,.03125-.10938,0-.07227-.05225-.10938-.15625-.10938h-5.40625c-.1875,0-.34912-.06738-.48438-.20312-.13574-.13477-.20312-.29688-.20312-.48438s.06738-.35156,.20312-.49219c.13525-.14062,.29688-.21094,.48438-.21094h6.375c.25,0,.46094,.07812,.63281,.23438s.25781,.35938,.25781,.60938c0,.21875-.05225,.44824-.15625,.6875l-4.4375,9.07812c-.0625,.125-.15918,.22461-.28906,.29688-.13037,.07227-.26318,.10938-.39844,.10938-.19824,0-.36719-.07031-.50781-.21094Z"/><path d="M19.20068,25.20117c.17969-.21875,.4082-.32812,.68555-.32812s.50586,.10938,.68555,.32812l4.16016,4.97461c.14844,.17578,.22266,.37988,.22266,.6123s-.07422,.43652-.22266,.6123l-4.16016,4.97461c-.17969,.21484-.4082,.32227-.68555,.32227s-.50586-.10742-.68555-.32227l-4.16016-4.97461c-.14844-.17969-.22266-.38477-.22266-.61523s.07422-.43359,.22266-.60938l4.16016-4.97461Z"/></g><g class="d"><path d="M77.11621,65.21875l-25.85553-26.53125c-1.11694-1.1665-2.53717-1.75-4.26068-1.75-1.72406,0-3.14429,.5835-4.26068,1.75l-4.65948,4.78125-1.94904,2-5.84723,6-1.94904,2-5.84717,6-1.9491,2-3.65448,3.75c-.66321,.67365-1.07831,1.42578-1.26477,2.25-.073,.32281-.11902,.65411-.11902,1,0,.34491,.04553,.67645,.1181,1,.1861,.82977,.60168,1.59198,1.26569,2.28125l3.62402,3.71875,1.9491,2,5.84717,6,1.94904,2,5.84723,6,1.94904,2,4.68994,4.8125c1.11639,1.14551,2.53662,1.71875,4.26068,1.71875,1.72351,0,3.14374-.57324,4.26068-1.71875l25.85553-26.53125c.92236-.9375,1.38379-2.02588,1.38379-3.26562,0-1.23926-.46143-2.32812-1.38379-3.26562Zm-32.93201-25.14844c.73969-.77289,1.6344-1.13281,2.8158-1.13281v4.53125h-6.12769l3.31189-3.39844Zm-5.26093,5.39844h8.07672v6h-13.92389l5.84717-6Zm-7.7962,8h15.87292v6H25.27991l5.84717-6Zm-12.81091,13.14581l5.01471-5.14581h23.66913v6H17.71185c.13422-.29626,.33215-.5777,.60431-.85419Zm.008,3.74786c-.27911-.28979-.48346-.58417-.61926-.89368h29.2951v6H23.30042l-4.97626-5.10632Zm6.92535,7.10632h21.75049v6h-15.90332l-5.84717-6Zm7.79626,8h13.95422v6h-8.10706l-5.84717-6Zm11.12585,11.41663l-3.32959-3.41663h6.15796v4.53125c-1.18854,0-2.08728-.35419-2.82837-1.11462Z"/></g></svg>