<?xml version="1.0" encoding="UTF-8"?><svg id="a" xmlns="http://www.w3.org/2000/svg" xmlns:xlink="http://www.w3.org/1999/xlink" viewBox="0 0 80 110"><defs><style>.c{fill:#fff;}.d{clip-path:url(#b);}.e{fill:none;}</style><clipPath id="b"><rect class="e" x="10" y="10" width="60" height="90" rx="4" ry="4"/></clipPath></defs><g><rect class="c" x=".5" y=".5" width="79" height="109" rx="7.5" ry="7.5"/><path d="M72,1c3.8598,0,7,3.1402,7,7V102c0,3.8598-3.1402,7-7,7H8c-3.8598,0-7-3.1402-7-7V8C1,4.1402,4.1402,1,8,1H72m0-1H8C3.58173,0,0,3.58173,0,8V102c0,4.41827,3.58173,8,8,8H72c4.41827,0,8-3.58173,8-8V8c0-4.41827-3.58173-8-8-8h0Z"/></g><g><path d="M16.27686,22.28125c-.10449-.07227-.18262-.15039-.23438-.23438-.05225-.08301-.07812-.19727-.07812-.34375,0-.19727,.05957-.36133,.17969-.49219,.11963-.12988,.27344-.19531,.46094-.19531,.09375,0,.20312,.02637,.32812,.07812,.84375,.4375,1.67676,.65625,2.5,.65625,1.02051,0,1.78125-.16895,2.28125-.50781,.5-.33789,.75-.89844,.75-1.67969,0-.64551-.21387-1.15332-.64062-1.52344-.42725-.36914-1.01562-.55469-1.76562-.55469-.875,0-1.67188,.22461-2.39062,.67188l-.1875,.09375c-.10449,.0625-.22949,.09375-.375,.09375-.30225,0-.55225-.08594-.75-.25781-.19824-.17188-.29688-.39258-.29688-.66406,0-.08301,.01025-.20801,.03125-.375l.70312-4.15625c.03125-.23926,.12207-.43164,.27344-.57812,.15088-.14551,.34082-.21875,.57031-.21875h5.01562c.1875,0,.34863,.06836,.48438,.20312,.13525,.13574,.20312,.29688,.20312,.48438s-.06787,.34668-.20312,.47656c-.13574,.13086-.29688,.19531-.48438,.19531h-4.21875c-.19824,0-.3125,.09375-.34375,.28125l-.45312,2.98438c.80176-.41602,1.67676-.625,2.625-.625,.75,0,1.41113,.15137,1.98438,.45312,.5415,.30273,.95557,.71875,1.24219,1.25,.28613,.53125,.42969,1.14648,.42969,1.84375,0,1.08398-.37012,1.94531-1.10938,2.58594-.73975,.64062-1.80225,.96094-3.1875,.96094-1.271,0-2.38574-.30176-3.34375-.90625Z"/><path d="M19.20068,25.20117c.17969-.21875,.4082-.32812,.68555-.32812s.50586,.10938,.68555,.32812l4.16016,4.97461c.14844,.17578,.22266,.37988,.22266,.6123s-.07422,.43652-.22266,.6123l-4.16016,4.97461c-.17969,.21484-.4082,.32227-.68555,.32227s-.50586-.10742-.68555-.32227l-4.16016-4.97461c-.14844-.17969-.22266-.38477-.22266-.61523s.07422-.43359,.22266-.60938l4.16016-4.97461Z"/></g><g class="d"><path d="M77.11621,65.21875l-25.85553-26.53125c-1.11694-1.1665-2.53717-1.75-4.26068-1.75-1.72406,0-3.14429,.5835-4.26068,1.75l-4.65948,4.78125-1.94904,2-5.84723,6-1.94904,2-5.84717,6-1.9491,2-3.65448,3.75c-.66321,.67365-1.07831,1.42578-1.26477,2.25-.073,.32281-.11902,.65411-.11902,1,0,.34491,.04553,.67645,.1181,1,.1861,.82977,.60168,1.59198,1.26569,2.28125l3.62402,3.71875,1.9491,2,5.84717,6,1.94904,2,5.84723,6,1.94904,2,4.68994,4.8125c1.11639,1.14551,2.53662,1.71875,4.26068,1.71875,1.72351,0,3.14374-.57324,4.26068-1.71875l25.85553-26.53125c.92236-.9375,1.38379-2.02588,1.38379-3.26562,0-1.23926-.46143-2.32812-1.38379-3.26562Zm-32.93201-25.14844c.73969-.77289,1.6344-1.13281,2.8158-1.13281v4.53125h-6.12769l3.31189-3.39844Zm-5.26093,5.39844h8.07672v6h-13.92389l5.84717-6Zm-7.7962,8h15.87292v6H25.27991l5.84717-6Zm-12.81091,13.14581l5.01471-5.14581h23.66913v6H17.71185c.13422-.29626,.33215-.5777,.60431-.85419Zm.008,3.74786c-.27911-.28979-.48346-.58417-.61926-.89368h29.2951v6H23.30042l-4.97626-5.10632Zm6.92535,7.10632h21.75049v6h-15.90332l-5.84717-6Zm7.79626,8h13.95422v6h-8.10706l-5.84717-6Zm11.12585,11.41663l-3.32959-3.41663h6.15796v4.53125c-1.18854,0-2.08728-.35419-2.82837-1.11462Z"/></g></svg>