<?xml version="1.0" encoding="UTF-8"?><svg id="a" xmlns="http://www.w3.org/2000/svg" xmlns:xlink="http://www.w3.org/1999/xlink" viewBox="0 0 80 110"><defs><style>.c{fill:#fff;}.d{clip-path:url(#b);}.e{fill:none;}</style><clipPath id="b"><rect class="e" x="10" y="10" width="60" height="90" rx="4" ry="4"/></clipPath></defs><g><rect class="c" x=".5" y=".5" width="79" height="109" rx="7.5" ry="7.5"/><path d="M72,1c3.8598,0,7,3.1402,7,7V102c0,3.8598-3.1402,7-7,7H8c-3.8598,0-7-3.1402-7-7V8C1,4.1402,4.1402,1,8,1H72m0-1H8C3.58173,0,0,3.58173,0,8V102c0,4.41827,3.58173,8,8,8H72c4.41827,0,8-3.58173,8-8V8c0-4.41827-3.58173-8-8-8h0Z"/></g><g><path d="M18.06592,22.89844c-.14062-.14062-.21094-.30957-.21094-.50781,0-.14551,.03125-.27051,.09375-.375l4.17188-8.3125c.02051-.0625,.03125-.09863,.03125-.10938,0-.07227-.05225-.10938-.15625-.10938h-5.40625c-.1875,0-.34912-.06738-.48438-.20312-.13574-.13477-.20312-.29688-.20312-.48438s.06738-.35156,.20312-.49219c.13525-.14062,.29688-.21094,.48438-.21094h6.375c.25,0,.46094,.07812,.63281,.23438s.25781,.35938,.25781,.60938c0,.21875-.05225,.44824-.15625,.6875l-4.4375,9.07812c-.0625,.125-.15918,.22461-.28906,.29688-.13037,.07227-.26318,.10938-.39844,.10938-.19824,0-.36719-.07031-.50781-.21094Z"/><path d="M22.00146,26.20898c.59375-.10547,1.11719-.09668,1.57031,.02637s.83691,.32617,1.15137,.60938,.55957,.61719,.73535,1.00195,.2832,.78809,.32227,1.20996,.00977,.83008-.08789,1.22461c-.14453,.57812-.38477,1.14062-.7207,1.6875s-.72168,1.06348-1.15723,1.5498-.88086,.93066-1.33594,1.33301-.87695,.75098-1.26562,1.0459-.70215,.52246-.94043,.68262c-.25781,.17188-.51562,.17188-.77344,0-.23438-.16016-.5459-.3877-.93457-.68262s-.81055-.64355-1.26562-1.0459-.90039-.84668-1.33594-1.33301-.82129-1.00293-1.15723-1.5498-.57812-1.10938-.72656-1.6875c-.09766-.39453-.12695-.80273-.08789-1.22461s.14648-.8252,.32227-1.20996,.4209-.71875,.73535-1.00195,.69824-.48633,1.15137-.60938,.97656-.13184,1.57031-.02637c.29688,.05469,.57422,.16895,.83203,.34277s.48242,.36133,.67383,.5625,.39453,.44824,.60938,.74121c.21484-.29297,.41797-.54004,.60938-.74121s.41504-.38867,.6709-.5625,.53418-.28809,.83496-.34277Z"/></g><g class="d"><path d="M78.43753,59.18762c-.2085-2.25-.78125-4.40088-1.71875-6.45312-.9375-2.05176-2.24512-3.83301-3.92188-5.34375-1.67725-1.51025-3.72412-2.59375-6.14062-3.25-.31403-.08527-.63501-.15912-.96167-.22382-.11035-.02185-.2251-.03687-.33691-.0564-.2193-.03821-.43848-.07666-.66333-.1059-.13599-.01764-.27618-.02869-.41425-.04303-.20685-.02155-.41333-.04352-.62469-.05762-.14941-.01001-.30237-.0141-.4541-.02032-.20654-.00854-.41333-.01685-.62415-.01849-.05103-.00043-.09985-.00446-.15112-.00446-.05304,0-.11047,.00714-.16382,.00769-1.255,.01013-2.57904,.13269-3.98096,.38171-.3988,.07257-.7901,.16492-1.17395,.27686-.37646,.10962-.74524,.2395-1.10742,.38684l-.02155,.00751-.00012,.00006c-.36224,.14813-.71674,.31659-1.0647,.5025-.01099,.00586-.02252,.01001-.03345,.01587-.35822,.19287-.70892,.40546-1.05194,.63849-1.36475,.92725-2.55762,1.92725-3.57812,3-1.021,1.07324-2.10449,2.39062-3.25,3.95312l-.00018-.00024h0c-1.14594-1.56244-2.22937-2.8797-3.24982-3.95288-.06647-.06982-.14001-.13666-.20795-.20587-.45776-.46619-.94354-.9209-1.46936-1.35913-.59534-.49622-1.23383-.97467-1.91644-1.435-1.10602-.74542-2.2829-1.27545-3.52362-1.61017-.30176-.08142-.60419-.16083-.91388-.21796-.51141-.09082-1.00037-.14526-1.49219-.20435-.91394-.10974-1.80664-.18506-2.65295-.18506-1.51874,0-2.92871,.1767-4.22986,.53003-2.41699,.65625-4.46387,1.73975-6.14062,3.25-1.67725,1.51074-2.98438,3.29199-3.92188,5.34375-.9375,2.05225-1.51074,4.20312-1.71875,6.45312-.10394,1.12201-.11688,2.22589-.03943,3.31165,.05957,.83575,.18964,1.65747,.35669,2.47168,.05115,.24921,.09027,.50073,.15149,.74792,.48346,1.88336,1.17651,3.73169,2.03314,5.55273,.29602,.62933,.61035,1.25555,.95099,1.87744,.28748,.52484,.57166,1.05029,.89087,1.56982,.75653,1.23181,1.57104,2.42822,2.42236,3.60223,.39447,.54407,.80096,1.08093,1.21582,1.61261,.80988,1.03796,1.64618,2.05988,2.53369,3.05078,.46082,.51459,.92535,1.01355,1.39032,1.5105,.45929,.49097,.92139,.96997,1.3847,1.44373,1.42822,1.46045,2.87311,2.84912,4.33954,4.14569l.01044,.00946c.50977,.45068,1.00732,.88153,1.50153,1.30701,1.6427,1.41425,3.19598,2.68372,4.66638,3.81891,.19293,.14899,.39209,.30804,.58209,.45221,.35901,.2724,.68927,.51965,1.02362,.77051,1.59595,1.19745,2.92725,2.16364,3.96075,2.87012,.68744,.45819,1.37488,.68738,2.06232,.68738h.00018c.03961,0,.07922-.00836,.11884-.00989,.64789-.0249,1.29578-.24561,1.94366-.67749,1.27051-.85449,2.94238-2.06787,5.01562-3.64062,2.07275-1.57324,4.32275-3.43262,6.75-5.57812,2.42676-2.14551,4.80176-4.51562,7.125-7.10938,2.32275-2.59375,4.37988-5.34863,6.17188-8.26562,1.7915-2.9165,3.07275-5.9165,3.84375-9,.52051-2.104,.67676-4.28125,.46875-6.53125Zm-60.88348,.18408c.18616-2.01398,.70648-3.96747,1.54633-5.80603,.81885-1.79205,1.97668-3.36963,3.44128-4.68884,1.43408-1.29169,3.22607-2.23578,5.32629-2.80597,1.12427-.30536,2.37103-.46014,3.70569-.46014,.25653,0,.53363,.02771,.79895,.03906l-14.87921,14.87915c.01172-.38446,.02472-.76917,.06067-1.15723Zm.41858,5.86646c-.16254-.65643-.27081-1.32825-.35394-2.0061l17.32196-17.32196c.14032,.02252,.2738,.03168,.41534,.05682,1.30426,.2406,2.54321,.75189,3.68207,1.51953,.57092,.38501,1.10608,.78711,1.61108,1.20038l-21.08417,21.08423c-.66272-1.49738-1.20197-3.01215-1.59235-4.5329Zm3.6377,8.43372c-.40363-.65686-.77783-1.32086-1.12848-1.98926l21.64655-21.64655c.05603,.05719,.11749,.11285,.17224,.17035,.95917,1.00873,1.99768,2.27301,3.08667,3.75781,.18665,.25452,.42834,.45654,.70166,.5965l-22.32593,22.32599c-.75452-1.05304-1.48132-2.12164-2.15271-3.21484Zm5.95758,7.97821c-.90887-1.01471-1.76892-2.0683-2.59839-3.14142l22.03033-22.03033v8.48523l-18.11597,18.11603c-.44055-.47137-.88092-.94366-1.31598-1.4295Zm6.95984,6.94531c-1.43121-1.26508-2.85437-2.63354-4.26001-4.07129l16.73212-16.73212v8.48529l-12.38977,12.38977c-.02783-.0246-.05444-.047-.08234-.07166Zm1.59454,1.38788l10.87756-10.87756v8.48529l-6.20355,6.20355c-1.46277-1.12262-3.02533-2.39526-4.67401-3.81128Zm9.94391,7.67828c-.95972-.65607-2.1936-1.54919-3.66125-2.64722l4.59491-4.59491v7.58051c-.28644,0-.59821-.11499-.93365-.33838Z"/></g></svg>