<?xml version="1.0" encoding="UTF-8"?><svg id="a" xmlns="http://www.w3.org/2000/svg" xmlns:xlink="http://www.w3.org/1999/xlink" viewBox="0 0 80 110"><defs><style>.c{fill:#fff;}.d{clip-path:url(#b);}.e{fill:none;}</style><clipPath id="b"><rect class="e" x="10" y="10" width="60" height="90" rx="4" ry="4"/></clipPath></defs><g><rect class="c" x=".49989" y=".50002" width="79" height="109" rx="7.5" ry="7.5"/><path d="M72,.99999c3.85982,0,7,3.14018,7,7V101.99999c0,3.85982-3.14018,7-7,7H8c-3.85982,0-7-3.14018-7-7V7.99999C1,4.14018,4.14018,.99999,8,.99999H72M72,0H8C3.58172,0,0,3.58173,0,7.99999V101.99999C0,106.41828,3.58172,109.99999,8,109.99999H72c4.41827,0,8-3.58171,8-8V7.99999C80,3.58173,76.41828,0,72,0h0Z"/></g><g class="d"><path d="M9.168,113.75191L1.10945,101.66409c-.6718-1.0077-.6718-2.3205,0-3.3282l8.05855-12.08782c.39582-.59373,1.26828-.59373,1.6641,0l8.05855,12.08782c.6718,1.0077,.6718,2.3205,0,3.3282l-8.05855,12.08782c-.39582,.59373-1.26828,.59373-1.6641,0Z"/><path d="M29.16794,113.75192l-8.05855-12.08782c-.6718-1.0077-.6718-2.3205,0-3.3282l8.05855-12.08782c.39582-.59373,1.26828-.59373,1.6641,0l8.05855,12.08782c.6718,1.0077,.6718,2.3205,0,3.3282l-8.05855,12.08782c-.39582,.59373-1.26828,.59373-1.6641,0Z"/><path d="M9.168,83.75191L1.10945,71.66409c-.6718-1.0077-.6718-2.3205,0-3.3282l8.05855-12.08782c.39582-.59373,1.26828-.59373,1.6641,0l8.05855,12.08782c.6718,1.0077,.6718,2.3205,0,3.3282l-8.05855,12.08782c-.39582,.59373-1.26828,.59373-1.6641,0Z"/><path d="M29.16794,83.75192l-8.05855-12.08782c-.6718-1.0077-.6718-2.3205,0-3.3282l8.05855-12.08782c.39582-.59373,1.26828-.59373,1.6641,0l8.05855,12.08782c.6718,1.0077,.6718,2.3205,0,3.3282l-8.05855,12.08782c-.39582,.59373-1.26828,.59373-1.6641,0Z"/><path d="M9.168,53.75191L1.10945,41.66409c-.6718-1.0077-.6718-2.3205,0-3.3282l8.05855-12.08782c.39582-.59373,1.26828-.59373,1.6641,0l8.05855,12.08782c.6718,1.0077,.6718,2.3205,0,3.3282l-8.05855,12.08782c-.39582,.59373-1.26828,.59373-1.6641,0Z"/><path d="M29.16794,53.75192l-8.05855-12.08782c-.6718-1.0077-.6718-2.3205,0-3.3282l8.05855-12.08782c.39582-.59373,1.26828-.59373,1.6641,0l8.05855,12.08782c.6718,1.0077,.6718,2.3205,0,3.3282l-8.05855,12.08782c-.39582,.59373-1.26828,.59373-1.6641,0Z"/><path d="M9.168,23.75191L1.10945,11.66409c-.6718-1.0077-.6718-2.3205,0-3.3282L9.168-3.75193c.39582-.59373,1.26828-.59373,1.6641,0l8.05855,12.08782c.6718,1.0077,.6718,2.3205,0,3.3282l-8.05855,12.08782c-.39582,.59373-1.26828,.59373-1.6641,0Z"/><path d="M29.16794,23.75192l-8.05855-12.08782c-.6718-1.0077-.6718-2.3205,0-3.3282L29.16794-3.75193c.39582-.59373,1.26828-.59373,1.6641,0l8.05855,12.08782c.6718,1.0077,.6718,2.3205,0,3.3282l-8.05855,12.08782c-.39582,.59373-1.26828,.59373-1.6641,0Z"/><path d="M49.16795,113.75192l-8.05855-12.08782c-.6718-1.0077-.6718-2.3205,0-3.3282l8.05855-12.08782c.39582-.59373,1.26828-.59373,1.6641,0l8.05855,12.08782c.6718,1.0077,.6718,2.3205,0,3.3282l-8.05855,12.08782c-.39582,.59373-1.26828,.59373-1.6641,0Z"/><path d="M49.16795,83.75192l-8.05855-12.08782c-.6718-1.0077-.6718-2.3205,0-3.3282l8.05855-12.08782c.39582-.59373,1.26828-.59373,1.6641,0l8.05855,12.08782c.6718,1.0077,.6718,2.3205,0,3.3282l-8.05855,12.08782c-.39582,.59373-1.26828,.59373-1.6641,0Z"/><path d="M49.16795,53.75192l-8.05855-12.08782c-.6718-1.0077-.6718-2.3205,0-3.3282l8.05855-12.08782c.39582-.59373,1.26828-.59373,1.6641,0l8.05855,12.08782c.6718,1.0077,.6718,2.3205,0,3.3282l-8.05855,12.08782c-.39582,.59373-1.26828,.59373-1.6641,0Z"/><path d="M49.16795,23.75192l-8.05855-12.08782c-.6718-1.0077-.6718-2.3205,0-3.3282L49.16795-3.75192c.39582-.59373,1.26828-.59373,1.6641,0l8.05855,12.08782c.6718,1.0077,.6718,2.3205,0,3.3282l-8.05855,12.08782c-.39582,.59373-1.26828,.59373-1.6641,0Z"/><path d="M69.16795,113.75192l-8.05855-12.08782c-.6718-1.0077-.6718-2.3205,0-3.3282l8.05855-12.08782c.39582-.59373,1.26828-.59373,1.6641,0l8.05855,12.08782c.6718,1.0077,.6718,2.3205,0,3.3282l-8.05855,12.08782c-.39582,.59373-1.26828,.59373-1.6641,0Z"/><path d="M69.16795,83.75192l-8.05855-12.08782c-.6718-1.0077-.6718-2.3205,0-3.3282l8.05855-12.08782c.39582-.59373,1.26828-.59373,1.6641,0l8.05855,12.08782c.6718,1.0077,.6718,2.3205,0,3.3282l-8.05855,12.08782c-.39582,.59373-1.26828,.59373-1.6641,0Z"/><path d="M69.16795,53.75192l-8.05855-12.08782c-.6718-1.0077-.6718-2.3205,0-3.3282l8.05855-12.08782c.39582-.59373,1.26828-.59373,1.6641,0l8.05855,12.08782c.6718,1.0077,.6718,2.3205,0,3.3282l-8.05855,12.08782c-.39582,.59373-1.26828,.59373-1.6641,0Z"/><path d="M69.16795,23.75192l-8.05855-12.08782c-.6718-1.0077-.6718-2.3205,0-3.3282l8.05855-12.08782c.39582-.59373,1.26828-.59373,1.6641,0l8.05855,12.08782c.6718,1.0077,.6718,2.3205,0,3.3282l-8.05855,12.08782c-.39582,.59373-1.26828,.59373-1.6641,0Z"/></g></svg>