<?xml version="1.0" encoding="UTF-8"?><svg id="a" xmlns="http://www.w3.org/2000/svg" viewBox="0 0 80 110"><defs><style>.b{fill:#fff;}</style></defs><rect class="b" x=".49989" y=".50002" width="79" height="109" rx="7.5" ry="7.5"/><path d="M72,.99999c3.85982,0,7,3.14018,7,7V101.99999c0,3.85982-3.14018,7-7,7H8c-3.85982,0-7-3.14018-7-7V7.99999C1,4.14018,4.14018,.99999,8,.99999H72M72,0H8C3.58172,0,0,3.58173,0,7.99999V101.99999C0,106.41828,3.58172,109.99999,8,109.99999H72c4.41827,0,8-3.58171,8-8V7.99999C80,3.58173,76.41828,0,72,0h0Z"/></svg>