<?xml version="1.0" encoding="UTF-8"?><svg id="a" xmlns="http://www.w3.org/2000/svg" xmlns:xlink="http://www.w3.org/1999/xlink" viewBox="0 0 80 110"><defs><style>.c{clip-path:url(#b);}.d{fill:none;}</style><clipPath id="b"><rect class="d" x="10" y="10" width="60" height="90" rx="4" ry="4"/></clipPath></defs><path d="M23.10352,33.91992c-.42188,.02344-.81836-.04004-1.18945-.19043s-.69727-.3623-.97852-.63574c-.03516-.03516-.07617-.04395-.12305-.02637s-.07031,.05176-.07031,.10254v.5332c0,.29297,.07324,.56152,.21973,.80566s.34277,.44043,.58887,.58887,.51953,.22461,.82031,.22852h.03516c.22656,0,.41211,.0918,.55664,.27539s.17969,.39453,.10547,.63281c-.04297,.13672-.12695,.24805-.25195,.33398s-.26172,.12891-.41016,.12891h-5.04492c-.19531,0-.3623-.06836-.50098-.20508s-.2041-.30078-.19629-.49219c.00391-.1875,.07715-.34668,.21973-.47754s.30957-.19629,.50098-.19629h.01172c.30078-.00391,.5752-.08008,.82324-.22852s.44434-.34473,.58887-.58887,.2168-.5127,.2168-.80566v-.5332c0-.05078-.02344-.08496-.07031-.10254s-.08789-.00879-.12305,.02637c-.27344,.26953-.59668,.47852-.96973,.62695s-.77051,.21289-1.19238,.19336c-.48438-.02344-.92676-.15723-1.32715-.40137s-.72363-.56445-.96973-.96094-.37695-.83301-.39258-1.30957c-.02344-.53125,.09082-1.0166,.34277-1.45605s.59668-.79004,1.03418-1.05176,.92383-.39258,1.45898-.39258h.00586c.07422,0,.1377-.02734,.19043-.08203s.07324-.12109,.06152-.19922c-.01953-.12109-.0293-.25391-.0293-.39844,0-.52734,.13379-1.00488,.40137-1.43262s.62402-.76562,1.06934-1.01367,.93945-.3623,1.48242-.34277c.48828,.01953,.93457,.14941,1.33887,.38965s.73047,.55762,.97852,.95215,.38574,.83008,.41309,1.30664c.00781,.1875-.00195,.36719-.0293,.53906-.00781,.07812,.0127,.14551,.06152,.20215s.11426,.08496,.19629,.08496c.53516,0,1.02148,.13086,1.45898,.39258s.78223,.61328,1.03418,1.05469,.36816,.92578,.34863,1.45312c-.01953,.47656-.15137,.91309-.39551,1.30957s-.56641,.7168-.9668,.96094-.84473,.37793-1.33301,.40137Z"/><g class="c"><path d="M76.65864,63.18005c-1.34375-2.35449-3.18262-4.22949-5.51562-5.625-2.3335-1.39551-4.92725-2.09375-7.78125-2.09375-.4375,0-.78662-.15137-1.04688-.45312-.25983-.30072-.36865-.65887-.32776-1.07404,.14508-.91602,.19733-1.87286,.15588-2.87163l-.00006-.00032,.00006-.00714c-.146-2.54199-.88037-4.86426-2.20312-6.96875-1.32324-2.10449-3.0625-3.79688-5.21875-5.07812s-4.53662-1.97363-7.14062-2.07812c-.19568-.00708-.38721-.00256-.58051-.00311h0l-.05121-.00092c-2.41614,.00006-4.64404,.51642-6.68787,1.53699-.19653,.09814-.39355,.19501-.58667,.30261-.23657,.13177-.44714,.28979-.67426,.43109-2.05347,1.27728-3.7442,2.92114-5.02887,4.97516-.37354,.59711-.69537,1.21344-.97113,1.84692-.77789,1.7868-1.16949,3.71735-1.16949,5.79371,0,.7705,.05176,1.47948,.15625,2.125,.0625,.41698-.04688,.7705-.32812,1.06249-.19006,.19733-.4162,.30286-.65863,.3667-.11627,.03058-.22876,.07081-.35699,.07081h-.03125c-1.99951,0-3.86816,.35039-5.61176,1.03527-.68616,.26947-1.35352,.58923-2,.96473-.05603,.03252-.11377,.06041-.16949,.09374-2.3335,1.39551-4.17188,3.26562-5.51562,5.60938s-1.95312,4.93262-1.82812,7.76562c.08301,2.54199,.78125,4.87012,2.09375,6.98438s3.03613,3.82324,5.17188,5.125c.08044,.04901,.16656,.08313,.24762,.13049,.64514,.37695,1.31458,.69006,2,.96136,1.51495,.59955,3.11877,.96594,4.83051,1.04877,.26227,.01221,.52264,.01831,.78143,.01831,.13104,0,.25793-.0144,.38806-.01752,.6792-.0163,1.34552-.07703,2-.17847,1.09656-.16998,2.16266-.4447,3.18988-.85358,1.0047-.40002,1.94073-.88342,2.81012-1.44794,.71582-.46484,1.37598-.99738,2-1.57397,.11865-.10962,.2464-.20819,.36176-.32184,.125-.125,.26385-.1875,.41669-.1875,.07635,0,.15625,.01562,.23956,.04688,.25,.09375,.375,.27637,.375,.54688v2.84374c0,1.5625-.38574,2.99512-1.15625,4.29688-.07245,.12231-.15942,.2312-.23676,.349-.54779,.83478-1.2077,1.56592-2,2.17474-.28601,.21979-.586,.42657-.90387,.61688-1.32324,.79102-2.78662,1.19727-4.39062,1.21876h-.0625c-1.021,0-1.91162,.34862-2.67188,1.04687-.76074,.69727-1.15137,1.54688-1.17188,2.54688-.04199,1.02051,.30713,1.89551,1.04688,2.625,.73926,.72852,1.62988,1.09375,2.67188,1.09375h26.90625c.7915,0,1.52051-.22949,2.1875-.68749,.6665-.45899,1.11426-1.05274,1.34375-1.78126,.09961-.32019,.16144-.63092,.18707-.9325,.07825-.89911-.17145-1.71576-.74957-2.44995-.771-.97949-1.76074-1.46875-2.96875-1.46875h-.1875c-1.60449-.02148-3.0625-.42773-4.375-1.21875-1.3125-.79199-2.35938-1.83887-3.14062-3.14062s-1.17188-2.73438-1.17188-4.29688v-2.83629c0-.27052,.125-.45313,.375-.54688,.02704-.01013,.05151-.00842,.07782-.01526,.07294-.01874,.14368-.02759,.211-.02106,.04004,.00372,.07898,.01239,.11713,.02509,.06799,.02295,.13287,.06067,.19452,.11224,.01819,.01514,.03821,.02203,.05579,.03961,1.5,1.45801,3.23926,2.58887,5.21875,3.39062,.48846,.19794,.98743,.35974,1.49243,.50122,.02887,.00806,.05859,.01331,.08752,.02118,.45929,.12549,.9259,.22656,1.3988,.30554,.0918,.01532,.18512,.0257,.27747,.03925,.4184,.06152,.84174,.1062,1.27069,.13171,.11078,.00659,.22217,.01117,.33362,.01532,.19415,.00726,.3847,.02667,.58099,.02667,.29816,0,.59912-.00842,.90222-.02526,2.604-.125,4.97363-.83888,7.10938-2.14063,2.13525-1.30176,3.854-3.01074,5.15625-5.125,1.30176-2.11426,2.00488-4.44238,2.10938-6.98437,.013-.35176,.01465-.6999,.005-1.0445-.06641-2.41333-.6875-4.65082-1.86438-6.71295Zm-57.37891,13.65576c-1.13519-1.82861-1.72205-3.78955-1.79492-6.0177-.10901-2.46979,.40295-4.6557,1.56512-6.68268,1.00726-1.75684,2.31952-3.1604,3.95007-4.30194v20.92615c-1.49127-1.05579-2.75031-2.36127-3.72028-3.92383Zm11.33221,6.33875c-.22809,0-.45758-.00543-.68481-.01593-1.78534-.08636-3.40631-.49384-4.92712-1.21362v-23.29816c1.71857-.80756,3.56946-1.20934,5.64301-1.20934,.12238,0,.23804-.02284,.35699-.03492v25.75439c-.12994,.0036-.25732,.01758-.38806,.01758Zm4.83832-.90778c-.78741,.31342-1.60712,.54218-2.45026,.69366v-26.48816c.03174-.0307,.06812-.05273,.09906-.08484,.71277-.73993,1.02014-1.71527,.862-2.76953-.08667-.53516-.13055-1.14258-.13055-1.80541,0-2.45271,.60059-4.60499,1.8363-6.58009,.88879-1.42108,2.01129-2.63116,3.33319-3.63177v38.60718c-1.04791,.8446-2.23633,1.53607-3.54974,2.05896Zm-1.74475,15.73322h-.1875c-.51324,0-.90436-.15985-1.26758-.51776-.34052-.33582-.47174-.65997-.4516-1.15997,.00928-.45258,.16589-.78558,.52515-1.11487,.39148-.35956,.79828-.51989,1.31903-.51989l.08929-.00019c1.90503-.02545,3.67407-.51465,5.2677-1.43945v4.75214h-5.29449Zm7.29449,0v-6.24371c.75842-.70673,1.42163-1.50403,1.95789-2.40942,.95227-1.60889,1.43512-3.39734,1.43512-5.31561v-2.84374c0-1.10548-.64099-2.0326-1.67267-2.4195-.30829-.1156-.62518-.17426-.94189-.17426-.26825,0-.52789,.05402-.77844,.13531V40.34497c1.81793-.94165,3.76465-1.41888,5.94885-1.41895l.05115,.00092v59.07306h-6Z"/></g></svg>