<?xml version="1.0" encoding="UTF-8"?><svg id="a" xmlns="http://www.w3.org/2000/svg" viewBox="0 0 80 110"><path d="M22.51172,25.15625l-1.6875-2.03125c-.24023,.04102-.55273,.0625-.9375,.0625-1.09375,0-2.05762-.23926-2.89062-.71875-.8125-.47852-1.44531-1.14258-1.89844-1.99219-.45312-.84863-.69043-1.82031-.71094-2.91406,.02051-1.09375,.25488-2.0625,.70312-2.90625,.44727-.85352,1.08789-1.52051,1.92188-2,.83301-.47852,1.79102-.71875,2.875-.71875,1.09375,0,2.05664,.24023,2.89062,.71875,.8125,.47949,1.44531,1.14648,1.89844,2,.45312,.85449,.68945,1.82324,.71094,2.90625-.02148,1.21875-.31543,2.28418-.88281,3.19531-.56836,.91211-1.34668,1.57617-2.33594,1.99219l1.35938,1.5c.125,.14551,.1875,.3125,.1875,.5,0,.17676-.07031,.33008-.21094,.46094-.14062,.12988-.2998,.19531-.47656,.19531-.19824,0-.37012-.08398-.51562-.25Zm-.46875-3.89062c.60352-.36426,1.07031-.86719,1.39844-1.50781s.49219-1.37207,.49219-2.19531c0-.8125-.16211-1.54102-.48438-2.1875-.33398-.65625-.80762-1.16602-1.42188-1.53125-.61523-.36426-1.32812-.54688-2.14062-.54688-.84375,0-1.5625,.1875-2.15625,.5625-.60449,.36523-1.07031,.86719-1.39844,1.50781s-.49219,1.37305-.49219,2.19531c0,.8125,.16113,1.54199,.48438,2.1875,.33301,.66699,.80469,1.17969,1.41406,1.53906s1.3252,.53906,2.14844,.53906c.84375,0,1.5625-.1875,2.15625-.5625Z"/></svg>