<?xml version="1.0" encoding="UTF-8"?><svg id="a" xmlns="http://www.w3.org/2000/svg" viewBox="0 0 80 110"><path d="M16.27734,22.28125c-.10449-.07227-.18262-.15039-.23438-.23438-.05273-.08301-.07812-.19727-.07812-.34375,0-.19727,.05957-.36133,.17969-.49219,.11914-.12988,.27344-.19531,.46094-.19531,.09375,0,.20312,.02637,.32812,.07812,.84375,.4375,1.67676,.65625,2.5,.65625,1.02051,0,1.78125-.16895,2.28125-.50781,.5-.33789,.75-.89844,.75-1.67969,0-.64551-.21387-1.15332-.64062-1.52344-.42773-.36914-1.01562-.55469-1.76562-.55469-.875,0-1.67188,.22461-2.39062,.67188l-.1875,.09375c-.10449,.0625-.22949,.09375-.375,.09375-.30273,0-.55273-.08594-.75-.25781-.19824-.17188-.29688-.39258-.29688-.66406,0-.08301,.00977-.20801,.03125-.375l.70312-4.15625c.03125-.23926,.12207-.43164,.27344-.57812,.15039-.14551,.34082-.21875,.57031-.21875h5.01562c.1875,0,.34863,.06836,.48438,.20312,.13477,.13574,.20312,.29688,.20312,.48438s-.06836,.34668-.20312,.47656c-.13574,.13086-.29688,.19531-.48438,.19531h-4.21875c-.19824,0-.3125,.09375-.34375,.28125l-.45312,2.98438c.80176-.41602,1.67676-.625,2.625-.625,.75,0,1.41113,.15137,1.98438,.45312,.54102,.30273,.95508,.71875,1.24219,1.25,.28613,.53125,.42969,1.14648,.42969,1.84375,0,1.08398-.37012,1.94531-1.10938,2.58594-.74023,.64062-1.80273,.96094-3.1875,.96094-1.27148,0-2.38574-.30176-3.34375-.90625Z"/></svg>