<?xml version="1.0" encoding="UTF-8"?><svg id="a" xmlns="http://www.w3.org/2000/svg" viewBox="0 0 80 110"><path d="M18.06641,22.89844c-.14062-.14062-.21094-.30957-.21094-.50781,0-.14551,.03125-.27051,.09375-.375l4.17188-8.3125c.02051-.0625,.03125-.09863,.03125-.10938,0-.07227-.05273-.10938-.15625-.10938h-5.40625c-.1875,0-.34961-.06738-.48438-.20312-.13574-.13477-.20312-.29688-.20312-.48438s.06738-.35156,.20312-.49219c.13477-.14062,.29688-.21094,.48438-.21094h6.375c.25,0,.46094,.07812,.63281,.23438s.25781,.35938,.25781,.60938c0,.21875-.05273,.44824-.15625,.6875l-4.4375,9.07812c-.0625,.125-.15918,.22461-.28906,.29688-.13086,.07227-.26367,.10938-.39844,.10938-.19824,0-.36719-.07031-.50781-.21094Z"/></svg>