<?xml version="1.0" encoding="UTF-8"?><svg id="a" xmlns="http://www.w3.org/2000/svg" viewBox="0 0 80 110"><path d="M23.88672,17.54688c0,.91699-.14648,1.79688-.4375,2.64062-.3125,.90625-.82031,1.63281-1.52344,2.17969s-1.56543,.82031-2.58594,.82031c-.55273,0-1.04492-.05762-1.47656-.17188-.43262-.11426-.8623-.28125-1.28906-.5-.10449-.05176-.1875-.13281-.25-.24219s-.09375-.2207-.09375-.33594c0-.16602,.06445-.31738,.19531-.45312,.12988-.13477,.2832-.20312,.46094-.20312,.09375,0,.18164,.01562,.26562,.04688,.65625,.30273,1.34863,.45312,2.07812,.45312,1.07227,0,1.86719-.36719,2.38281-1.10156s.80957-1.67383,.88281-2.82031c-.72949,.88574-1.79199,1.32812-3.1875,1.32812-.6875,0-1.30762-.15039-1.85938-.45312-.5625-.32227-.99219-.7627-1.28906-1.32031-.29688-.55664-.44531-1.19531-.44531-1.91406,0-.65625,.15625-1.25488,.46875-1.79688,.32227-.5625,.78125-.99707,1.375-1.30469,.59375-.30664,1.27051-.46094,2.03125-.46094,2.86426,0,4.29688,1.87012,4.29688,5.60938Zm-1.46875-1.39062c-.28125-1.90625-1.22949-2.85938-2.84375-2.85938-.47949,0-.90137,.09961-1.26562,.29688-.36523,.19824-.64648,.4668-.84375,.80469-.19824,.33887-.29688,.7168-.29688,1.13281,0,.72949,.20312,1.2998,.60938,1.71094,.40625,.41211,.97363,.61719,1.70312,.61719,1.34375,0,2.32227-.56738,2.9375-1.70312Z"/></svg>