<?xml version="1.0" encoding="UTF-8"?><svg id="a" xmlns="http://www.w3.org/2000/svg" viewBox="0 0 80 110"><path d="M23.61328,17.71094c.29688,.55762,.44531,1.19531,.44531,1.91406,0,.64648-.15625,1.24512-.46875,1.79688-.32324,.5625-.78125,.99805-1.375,1.30469s-1.27148,.46094-2.03125,.46094c-2.86523,0-4.29688-1.86914-4.29688-5.60938,0-.88477,.15039-1.76562,.45312-2.64062,.3125-.90625,.81738-1.63281,1.51562-2.17969,.69727-.54688,1.55664-.82031,2.57812-.82031,.55176,0,1.04395,.05762,1.47656,.17188,.43164,.11523,.86133,.28125,1.28906,.5,.10352,.05273,.1875,.13281,.25,.24219s.09375,.22168,.09375,.33594c0,.16699-.0625,.31836-.1875,.45312-.125,.13574-.28125,.20312-.46875,.20312-.09375,0-.18262-.01562-.26562-.04688-.65625-.30176-1.34961-.45312-2.07812-.45312-1.07324,0-1.86719,.36719-2.38281,1.10156s-.81055,1.6748-.88281,2.82031c.72852-.88477,1.79102-1.32812,3.1875-1.32812,.70801,0,1.33301,.15137,1.875,.45312,.55176,.32324,.97656,.76367,1.27344,1.32031Zm-1.30469,3c.19727-.33789,.29688-.71094,.29688-1.11719,0-.72852-.20312-1.29883-.60938-1.71094-.40625-.41113-.97461-.61719-1.70312-.61719-1.34375,0-2.32324,.56836-2.9375,1.70312,.28125,1.90625,1.22852,2.85938,2.84375,2.85938,.46875,0,.89551-.10352,1.28125-.3125,.35352-.19727,.62988-.46582,.82812-.80469Z"/></svg>