<?xml version="1.0" encoding="UTF-8"?><svg id="a" xmlns="http://www.w3.org/2000/svg" viewBox="0 0 80 110"><path d="M21.23828,22.89844c-.14062-.14062-.21094-.30957-.21094-.50781v-2.10938h-4.75c-.25,0-.4668-.08789-.64844-.26562-.18262-.17676-.27344-.39062-.27344-.64062v-.14062c0-.21875,.0625-.41113,.1875-.57812l4.90625-6.26562c.09375-.11426,.21094-.20508,.35156-.27344,.14062-.06738,.28906-.10156,.44531-.10156h.3125c.27051,0,.49219,.08887,.66406,.26562,.17188,.17773,.25781,.39648,.25781,.65625v6.04688h1.17188c.17676,0,.33008,.06543,.46094,.19531,.12988,.13086,.19531,.28418,.19531,.46094,0,.1875-.0625,.3418-.1875,.46094-.125,.12012-.28125,.17969-.46875,.17969h-1.17188v2.10938c0,.19824-.07324,.36719-.21875,.50781-.14648,.14062-.31836,.21094-.51562,.21094-.19824,0-.36719-.07031-.50781-.21094Zm-.24219-8.96094c-.02148-.03125-.04199-.04688-.0625-.04688-.03125,0-.07324,.03125-.125,.09375l-3.71875,4.78125c-.04199,.04199-.0625,.07812-.0625,.10938,0,.07324,.05664,.10938,.17188,.10938h3.82812v-4.9375c0-.04102-.01074-.07812-.03125-.10938Z"/></svg>