<?xml version="1.0" encoding="UTF-8"?><svg id="a" xmlns="http://www.w3.org/2000/svg" viewBox="0 0 80 110"><path d="M23.00391,18.29688c.42188,.45898,.63281,1.07812,.63281,1.85938,0,.94824-.37305,1.69043-1.11719,2.22656-.74512,.53711-1.72656,.80469-2.94531,.80469-1.1875,0-2.27637-.20801-3.26562-.625-.28125-.11426-.42188-.31738-.42188-.60938,0-.1875,.05957-.3457,.17969-.47656,.11914-.12988,.27344-.19531,.46094-.19531,.09375,0,.19238,.02148,.29688,.0625,.75977,.30273,1.58789,.45312,2.48438,.45312,.86426,0,1.55957-.14062,2.08594-.42188,.52539-.28125,.78906-.71289,.78906-1.29688,0-1.30176-1.14648-1.95312-3.4375-1.95312h-.25c-.17773,0-.33398-.06738-.46875-.20312-.13574-.13477-.20312-.29102-.20312-.46875,0-.17676,.06738-.33301,.20312-.46875,.13477-.13477,.29102-.20312,.46875-.20312h.09375c1.05176,0,1.84863-.1582,2.39062-.47656,.54102-.31738,.8125-.7832,.8125-1.39844,0-.50977-.21387-.90625-.64062-1.1875-.42773-.28125-1.03125-.42188-1.8125-.42188-.88574,0-1.69336,.17188-2.42188,.51562-.10449,.04199-.19824,.0625-.28125,.0625-.15625,0-.29492-.05664-.41406-.17188-.12012-.11426-.17969-.25488-.17969-.42188,0-.23926,.10938-.42188,.32812-.54688,.98926-.53125,2.02051-.79688,3.09375-.79688,1.19727,0,2.12695,.24512,2.78906,.73438,.66113,.49023,.99219,1.1875,.99219,2.09375,0,1.27148-.62012,2.14062-1.85938,2.60938,.65625,.15625,1.19531,.46387,1.61719,.92188Z"/></svg>