<?xml version="1.0" encoding="UTF-8"?><svg id="a" xmlns="http://www.w3.org/2000/svg" viewBox="0 0 80 110"><path d="M15.02734,22.89844c-.13574-.14062-.20312-.30957-.20312-.50781,0-.07227,.02539-.17676,.07812-.3125l3.98438-9.40625c.09375-.20801,.21875-.36914,.375-.48438,.15625-.11426,.33789-.17188,.54688-.17188h.15625c.20801,0,.39062,.05762,.54688,.17188,.15625,.11523,.28125,.27637,.375,.48438l3.98438,9.40625c.05176,.13574,.07812,.24023,.07812,.3125,0,.19824-.06836,.36719-.20312,.50781-.13574,.14062-.30762,.21094-.51562,.21094-.15625,0-.29492-.03906-.41406-.11719-.12012-.07812-.21094-.18945-.27344-.33594l-1.01562-2.42188h-5.28125l-1.01562,2.42188c-.0625,.14648-.1543,.25781-.27344,.33594-.12012,.07812-.25781,.11719-.41406,.11719-.20898,0-.38086-.07031-.51562-.21094Zm4.85938-8.83594c-.05273,0-.09375,.03711-.125,.10938l-1.96875,4.73438h4.1875l-1.96875-4.73438c-.03125-.07227-.07324-.10938-.125-.10938Z"/></svg>