<?xml version="1.0" encoding="UTF-8"?><svg id="a" xmlns="http://www.w3.org/2000/svg" viewBox="0 0 80 110"><path d="M16.77734,22.65625c-.22949-.14551-.34375-.34375-.34375-.59375,0-.16602,.05664-.31738,.17188-.45312,.11426-.13477,.25977-.20312,.4375-.20312,.11426,0,.20801,.02148,.28125,.0625,.46875,.22949,.95312,.34375,1.45312,.34375,.60352,0,1.06738-.17188,1.39062-.51562,.32227-.34375,.48438-.9375,.48438-1.78125v-6.76562c0-.19727,.07031-.36914,.21094-.51562,.14062-.14551,.30957-.21875,.50781-.21875,.19727,0,.36914,.07324,.51562,.21875,.14551,.14648,.21875,.31836,.21875,.51562v6.67188c0,1.24023-.27344,2.17773-.82031,2.8125-.54688,.63574-1.35156,.95312-2.41406,.95312-.76074,0-1.45898-.17676-2.09375-.53125Z"/></svg>