<?xml version="1.0" encoding="UTF-8"?><svg id="a" xmlns="http://www.w3.org/2000/svg" viewBox="0 0 80 110"><path d="M17.49609,22.73438c-.60449-.29102-1.05469-.66602-1.35156-1.125-.29688-.45801-.44531-.95312-.44531-1.48438,0-1.44727,.76562-2.43164,2.29688-2.95312-.54199-.19727-.97461-.5-1.29688-.90625-.32324-.40625-.48438-.89551-.48438-1.46875,0-.46875,.125-.91113,.375-1.32812,.25-.46875,.65625-.84082,1.21875-1.11719,.5625-.27539,1.25488-.41406,2.07812-.41406,.86426,0,1.56738,.14062,2.10938,.42188,.52051,.27148,.91113,.625,1.17188,1.0625,.25977,.4375,.39062,.89648,.39062,1.375,0,.57324-.16211,1.0625-.48438,1.46875-.32324,.40625-.75586,.70898-1.29688,.90625,1.53125,.52148,2.29688,1.50586,2.29688,2.95312,0,.52148-.14062,1.01074-.42188,1.46875-.29199,.49023-.75781,.87793-1.39844,1.16406s-1.42969,.42969-2.36719,.42969c-.96875,0-1.76562-.15137-2.39062-.45312Zm3.98438-1.15625c.375-.19727,.6582-.44238,.85156-.73438,.19238-.29102,.28906-.58301,.28906-.875,0-.64551-.25781-1.15625-.77344-1.53125s-1.16992-.5625-1.96094-.5625c-.79199,0-1.44531,.1875-1.96094,.5625s-.77344,.88574-.77344,1.53125c0,.26074,.09375,.54199,.28125,.84375,.19727,.32324,.50195,.58594,.91406,.78906,.41113,.20312,.92383,.30469,1.53906,.30469,.64551,0,1.17676-.10938,1.59375-.32812Zm.0625-5.49219c.375-.31738,.5625-.71582,.5625-1.19531,0-.52051-.19824-.92969-.59375-1.22656-.39648-.29688-.9375-.44531-1.625-.44531s-1.22949,.14844-1.625,.44531c-.39648,.29688-.59375,.70605-.59375,1.22656,0,.47949,.1875,.87793,.5625,1.19531,.375,.31836,.92676,.47656,1.65625,.47656,.72852,0,1.28125-.1582,1.65625-.47656Z"/></svg>