<?xml version="1.0" encoding="UTF-8"?><svg id="a" xmlns="http://www.w3.org/2000/svg" viewBox="0 0 80 110"><path d="M16.21484,22.80469c-.15625-.15039-.23438-.35156-.23438-.60156,0-.55176,.16113-1.05664,.48438-1.51562,.29102-.42676,.64551-.80957,1.0625-1.14844,.41602-.33789,1.04102-.77344,1.875-1.30469,.60352-.38477,1.10938-.72852,1.51562-1.03125,.875-.65625,1.3125-1.3125,1.3125-1.96875,0-.625-.20605-1.10156-.61719-1.42969-.41211-.32812-1.02344-.49219-1.83594-.49219-.9375,0-1.82812,.1875-2.67188,.5625-.125,.05273-.22461,.07812-.29688,.07812-.16699,0-.31055-.05957-.42969-.17969-.12012-.11914-.17969-.26758-.17969-.44531,0-.25977,.11914-.45801,.35938-.59375,1.0625-.53125,2.21875-.79688,3.46875-.79688,.6875,0,1.29688,.13086,1.82812,.39062,.5625,.27148,1,.64844,1.3125,1.13281s.46875,1.03906,.46875,1.66406c0,.63574-.17773,1.20898-.53125,1.71875-.33398,.49023-.73242,.92773-1.19531,1.3125-.46387,.38574-1.14844,.87012-2.05469,1.45312-.79199,.54199-1.35742,.95117-1.69531,1.22656-.33887,.27637-.57617,.55469-.71094,.83594h5.40625c.1875,0,.34863,.06836,.48438,.20312,.13477,.13574,.20312,.29688,.20312,.48438s-.06836,.34668-.20312,.47656c-.13574,.13086-.29688,.19531-.48438,.19531h-6.03125c-.25,0-.45312-.0752-.60938-.22656Z"/></svg>